<?xml version="1.0" encoding="utf-8" standalone="no"?>
<!DOCTYPE svg PUBLIC "-//W3C//DTD SVG 1.1//EN"
  "http://www.w3.org/Graphics/SVG/1.1/DTD/svg11.dtd">
<!-- Created with matplotlib (https://matplotlib.org/) -->
<svg height="432pt" version="1.1" viewBox="0 0 576 432" width="576pt" xmlns="http://www.w3.org/2000/svg" xmlns:xlink="http://www.w3.org/1999/xlink">
 <metadata>
  <rdf:RDF xmlns:cc="http://creativecommons.org/ns#" xmlns:dc="http://purl.org/dc/elements/1.1/" xmlns:rdf="http://www.w3.org/1999/02/22-rdf-syntax-ns#">
   <cc:Work>
    <dc:type rdf:resource="http://purl.org/dc/dcmitype/StillImage"/>
    <dc:date>2021-12-04T20:34:45.954135</dc:date>
    <dc:format>image/svg+xml</dc:format>
    <dc:creator>
     <cc:Agent>
      <dc:title>Matplotlib v3.3.4, https://matplotlib.org/</dc:title>
     </cc:Agent>
    </dc:creator>
   </cc:Work>
  </rdf:RDF>
 </metadata>
 <defs>
  <style type="text/css">*{stroke-linecap:butt;stroke-linejoin:round;}</style>
 </defs>
 <g id="figure_1">
  <g id="patch_1">
   <path d="M 0 432 
L 576 432 
L 576 0 
L 0 0 
z
" style="fill:#ffffff;"/>
  </g>
  <g id="axes_1">
   <g id="patch_2">
    <path d="M 72 345.6 
L 518.4 345.6 
L 518.4 51.84 
L 72 51.84 
z
" style="fill:#e5e5e5;"/>
   </g>
   <g id="matplotlib.axis_1">
    <g id="xtick_1">
     <g id="line2d_1">
      <path clip-path="url(#p00dc931224)" d="M 92.253327 345.6 
L 92.253327 51.84 
" style="fill:none;stroke:#ffffff;stroke-linecap:square;stroke-width:0.8;"/>
     </g>
     <g id="line2d_2">
      <defs>
       <path d="M 0 0 
L 0 3.5 
" id="m05d3767899" style="stroke:#555555;stroke-width:0.8;"/>
      </defs>
      <g>
       <use style="fill:#555555;stroke:#555555;stroke-width:0.8;" x="92.253327" xlink:href="#m05d3767899" y="345.6"/>
      </g>
     </g>
     <g id="text_1">
      <!-- 11-26 00 -->
      <g style="fill:#555555;" transform="translate(52.276169 381.660909)rotate(-30)scale(0.1 -0.1)">
       <defs>
        <path d="M 12.40625 8.296875 
L 28.515625 8.296875 
L 28.515625 63.921875 
L 10.984375 60.40625 
L 10.984375 69.390625 
L 28.421875 72.90625 
L 38.28125 72.90625 
L 38.28125 8.296875 
L 54.390625 8.296875 
L 54.390625 0 
L 12.40625 0 
z
" id="DejaVuSans-49"/>
        <path d="M 4.890625 31.390625 
L 31.203125 31.390625 
L 31.203125 23.390625 
L 4.890625 23.390625 
z
" id="DejaVuSans-45"/>
        <path d="M 19.1875 8.296875 
L 53.609375 8.296875 
L 53.609375 0 
L 7.328125 0 
L 7.328125 8.296875 
Q 12.9375 14.109375 22.625 23.890625 
Q 32.328125 33.6875 34.8125 36.53125 
Q 39.546875 41.84375 41.421875 45.53125 
Q 43.3125 49.21875 43.3125 52.78125 
Q 43.3125 58.59375 39.234375 62.25 
Q 35.15625 65.921875 28.609375 65.921875 
Q 23.96875 65.921875 18.8125 64.3125 
Q 13.671875 62.703125 7.8125 59.421875 
L 7.8125 69.390625 
Q 13.765625 71.78125 18.9375 73 
Q 24.125 74.21875 28.421875 74.21875 
Q 39.75 74.21875 46.484375 68.546875 
Q 53.21875 62.890625 53.21875 53.421875 
Q 53.21875 48.921875 51.53125 44.890625 
Q 49.859375 40.875 45.40625 35.40625 
Q 44.1875 33.984375 37.640625 27.21875 
Q 31.109375 20.453125 19.1875 8.296875 
z
" id="DejaVuSans-50"/>
        <path d="M 33.015625 40.375 
Q 26.375 40.375 22.484375 35.828125 
Q 18.609375 31.296875 18.609375 23.390625 
Q 18.609375 15.53125 22.484375 10.953125 
Q 26.375 6.390625 33.015625 6.390625 
Q 39.65625 6.390625 43.53125 10.953125 
Q 47.40625 15.53125 47.40625 23.390625 
Q 47.40625 31.296875 43.53125 35.828125 
Q 39.65625 40.375 33.015625 40.375 
z
M 52.59375 71.296875 
L 52.59375 62.3125 
Q 48.875 64.0625 45.09375 64.984375 
Q 41.3125 65.921875 37.59375 65.921875 
Q 27.828125 65.921875 22.671875 59.328125 
Q 17.53125 52.734375 16.796875 39.40625 
Q 19.671875 43.65625 24.015625 45.921875 
Q 28.375 48.1875 33.59375 48.1875 
Q 44.578125 48.1875 50.953125 41.515625 
Q 57.328125 34.859375 57.328125 23.390625 
Q 57.328125 12.15625 50.6875 5.359375 
Q 44.046875 -1.421875 33.015625 -1.421875 
Q 20.359375 -1.421875 13.671875 8.265625 
Q 6.984375 17.96875 6.984375 36.375 
Q 6.984375 53.65625 15.1875 63.9375 
Q 23.390625 74.21875 37.203125 74.21875 
Q 40.921875 74.21875 44.703125 73.484375 
Q 48.484375 72.75 52.59375 71.296875 
z
" id="DejaVuSans-54"/>
        <path id="DejaVuSans-32"/>
        <path d="M 31.78125 66.40625 
Q 24.171875 66.40625 20.328125 58.90625 
Q 16.5 51.421875 16.5 36.375 
Q 16.5 21.390625 20.328125 13.890625 
Q 24.171875 6.390625 31.78125 6.390625 
Q 39.453125 6.390625 43.28125 13.890625 
Q 47.125 21.390625 47.125 36.375 
Q 47.125 51.421875 43.28125 58.90625 
Q 39.453125 66.40625 31.78125 66.40625 
z
M 31.78125 74.21875 
Q 44.046875 74.21875 50.515625 64.515625 
Q 56.984375 54.828125 56.984375 36.375 
Q 56.984375 17.96875 50.515625 8.265625 
Q 44.046875 -1.421875 31.78125 -1.421875 
Q 19.53125 -1.421875 13.0625 8.265625 
Q 6.59375 17.96875 6.59375 36.375 
Q 6.59375 54.828125 13.0625 64.515625 
Q 19.53125 74.21875 31.78125 74.21875 
z
" id="DejaVuSans-48"/>
       </defs>
       <use xlink:href="#DejaVuSans-49"/>
       <use x="63.623047" xlink:href="#DejaVuSans-49"/>
       <use x="127.246094" xlink:href="#DejaVuSans-45"/>
       <use x="163.330078" xlink:href="#DejaVuSans-50"/>
       <use x="226.953125" xlink:href="#DejaVuSans-54"/>
       <use x="290.576172" xlink:href="#DejaVuSans-32"/>
       <use x="322.363281" xlink:href="#DejaVuSans-48"/>
       <use x="385.986328" xlink:href="#DejaVuSans-48"/>
      </g>
     </g>
    </g>
    <g id="xtick_2">
     <g id="line2d_3">
      <path clip-path="url(#p00dc931224)" d="M 142.988821 345.6 
L 142.988821 51.84 
" style="fill:none;stroke:#ffffff;stroke-linecap:square;stroke-width:0.8;"/>
     </g>
     <g id="line2d_4">
      <g>
       <use style="fill:#555555;stroke:#555555;stroke-width:0.8;" x="142.988821" xlink:href="#m05d3767899" y="345.6"/>
      </g>
     </g>
     <g id="text_2">
      <!-- 11-26 03 -->
      <g style="fill:#555555;" transform="translate(103.011663 381.660909)rotate(-30)scale(0.1 -0.1)">
       <defs>
        <path d="M 40.578125 39.3125 
Q 47.65625 37.796875 51.625 33 
Q 55.609375 28.21875 55.609375 21.1875 
Q 55.609375 10.40625 48.1875 4.484375 
Q 40.765625 -1.421875 27.09375 -1.421875 
Q 22.515625 -1.421875 17.65625 -0.515625 
Q 12.796875 0.390625 7.625 2.203125 
L 7.625 11.71875 
Q 11.71875 9.328125 16.59375 8.109375 
Q 21.484375 6.890625 26.8125 6.890625 
Q 36.078125 6.890625 40.9375 10.546875 
Q 45.796875 14.203125 45.796875 21.1875 
Q 45.796875 27.640625 41.28125 31.265625 
Q 36.765625 34.90625 28.71875 34.90625 
L 20.21875 34.90625 
L 20.21875 43.015625 
L 29.109375 43.015625 
Q 36.375 43.015625 40.234375 45.921875 
Q 44.09375 48.828125 44.09375 54.296875 
Q 44.09375 59.90625 40.109375 62.90625 
Q 36.140625 65.921875 28.71875 65.921875 
Q 24.65625 65.921875 20.015625 65.03125 
Q 15.375 64.15625 9.8125 62.3125 
L 9.8125 71.09375 
Q 15.4375 72.65625 20.34375 73.4375 
Q 25.25 74.21875 29.59375 74.21875 
Q 40.828125 74.21875 47.359375 69.109375 
Q 53.90625 64.015625 53.90625 55.328125 
Q 53.90625 49.265625 50.4375 45.09375 
Q 46.96875 40.921875 40.578125 39.3125 
z
" id="DejaVuSans-51"/>
       </defs>
       <use xlink:href="#DejaVuSans-49"/>
       <use x="63.623047" xlink:href="#DejaVuSans-49"/>
       <use x="127.246094" xlink:href="#DejaVuSans-45"/>
       <use x="163.330078" xlink:href="#DejaVuSans-50"/>
       <use x="226.953125" xlink:href="#DejaVuSans-54"/>
       <use x="290.576172" xlink:href="#DejaVuSans-32"/>
       <use x="322.363281" xlink:href="#DejaVuSans-48"/>
       <use x="385.986328" xlink:href="#DejaVuSans-51"/>
      </g>
     </g>
    </g>
    <g id="xtick_3">
     <g id="line2d_5">
      <path clip-path="url(#p00dc931224)" d="M 193.724315 345.6 
L 193.724315 51.84 
" style="fill:none;stroke:#ffffff;stroke-linecap:square;stroke-width:0.8;"/>
     </g>
     <g id="line2d_6">
      <g>
       <use style="fill:#555555;stroke:#555555;stroke-width:0.8;" x="193.724315" xlink:href="#m05d3767899" y="345.6"/>
      </g>
     </g>
     <g id="text_3">
      <!-- 11-26 06 -->
      <g style="fill:#555555;" transform="translate(153.747157 381.660909)rotate(-30)scale(0.1 -0.1)">
       <use xlink:href="#DejaVuSans-49"/>
       <use x="63.623047" xlink:href="#DejaVuSans-49"/>
       <use x="127.246094" xlink:href="#DejaVuSans-45"/>
       <use x="163.330078" xlink:href="#DejaVuSans-50"/>
       <use x="226.953125" xlink:href="#DejaVuSans-54"/>
       <use x="290.576172" xlink:href="#DejaVuSans-32"/>
       <use x="322.363281" xlink:href="#DejaVuSans-48"/>
       <use x="385.986328" xlink:href="#DejaVuSans-54"/>
      </g>
     </g>
    </g>
    <g id="xtick_4">
     <g id="line2d_7">
      <path clip-path="url(#p00dc931224)" d="M 244.459809 345.6 
L 244.459809 51.84 
" style="fill:none;stroke:#ffffff;stroke-linecap:square;stroke-width:0.8;"/>
     </g>
     <g id="line2d_8">
      <g>
       <use style="fill:#555555;stroke:#555555;stroke-width:0.8;" x="244.459809" xlink:href="#m05d3767899" y="345.6"/>
      </g>
     </g>
     <g id="text_4">
      <!-- 11-26 09 -->
      <g style="fill:#555555;" transform="translate(204.482651 381.660909)rotate(-30)scale(0.1 -0.1)">
       <defs>
        <path d="M 10.984375 1.515625 
L 10.984375 10.5 
Q 14.703125 8.734375 18.5 7.8125 
Q 22.3125 6.890625 25.984375 6.890625 
Q 35.75 6.890625 40.890625 13.453125 
Q 46.046875 20.015625 46.78125 33.40625 
Q 43.953125 29.203125 39.59375 26.953125 
Q 35.25 24.703125 29.984375 24.703125 
Q 19.046875 24.703125 12.671875 31.3125 
Q 6.296875 37.9375 6.296875 49.421875 
Q 6.296875 60.640625 12.9375 67.421875 
Q 19.578125 74.21875 30.609375 74.21875 
Q 43.265625 74.21875 49.921875 64.515625 
Q 56.59375 54.828125 56.59375 36.375 
Q 56.59375 19.140625 48.40625 8.859375 
Q 40.234375 -1.421875 26.421875 -1.421875 
Q 22.703125 -1.421875 18.890625 -0.6875 
Q 15.09375 0.046875 10.984375 1.515625 
z
M 30.609375 32.421875 
Q 37.25 32.421875 41.125 36.953125 
Q 45.015625 41.5 45.015625 49.421875 
Q 45.015625 57.28125 41.125 61.84375 
Q 37.25 66.40625 30.609375 66.40625 
Q 23.96875 66.40625 20.09375 61.84375 
Q 16.21875 57.28125 16.21875 49.421875 
Q 16.21875 41.5 20.09375 36.953125 
Q 23.96875 32.421875 30.609375 32.421875 
z
" id="DejaVuSans-57"/>
       </defs>
       <use xlink:href="#DejaVuSans-49"/>
       <use x="63.623047" xlink:href="#DejaVuSans-49"/>
       <use x="127.246094" xlink:href="#DejaVuSans-45"/>
       <use x="163.330078" xlink:href="#DejaVuSans-50"/>
       <use x="226.953125" xlink:href="#DejaVuSans-54"/>
       <use x="290.576172" xlink:href="#DejaVuSans-32"/>
       <use x="322.363281" xlink:href="#DejaVuSans-48"/>
       <use x="385.986328" xlink:href="#DejaVuSans-57"/>
      </g>
     </g>
    </g>
    <g id="xtick_5">
     <g id="line2d_9">
      <path clip-path="url(#p00dc931224)" d="M 295.195302 345.6 
L 295.195302 51.84 
" style="fill:none;stroke:#ffffff;stroke-linecap:square;stroke-width:0.8;"/>
     </g>
     <g id="line2d_10">
      <g>
       <use style="fill:#555555;stroke:#555555;stroke-width:0.8;" x="295.195302" xlink:href="#m05d3767899" y="345.6"/>
      </g>
     </g>
     <g id="text_5">
      <!-- 11-26 12 -->
      <g style="fill:#555555;" transform="translate(255.218144 381.660909)rotate(-30)scale(0.1 -0.1)">
       <use xlink:href="#DejaVuSans-49"/>
       <use x="63.623047" xlink:href="#DejaVuSans-49"/>
       <use x="127.246094" xlink:href="#DejaVuSans-45"/>
       <use x="163.330078" xlink:href="#DejaVuSans-50"/>
       <use x="226.953125" xlink:href="#DejaVuSans-54"/>
       <use x="290.576172" xlink:href="#DejaVuSans-32"/>
       <use x="322.363281" xlink:href="#DejaVuSans-49"/>
       <use x="385.986328" xlink:href="#DejaVuSans-50"/>
      </g>
     </g>
    </g>
    <g id="xtick_6">
     <g id="line2d_11">
      <path clip-path="url(#p00dc931224)" d="M 345.930796 345.6 
L 345.930796 51.84 
" style="fill:none;stroke:#ffffff;stroke-linecap:square;stroke-width:0.8;"/>
     </g>
     <g id="line2d_12">
      <g>
       <use style="fill:#555555;stroke:#555555;stroke-width:0.8;" x="345.930796" xlink:href="#m05d3767899" y="345.6"/>
      </g>
     </g>
     <g id="text_6">
      <!-- 11-26 15 -->
      <g style="fill:#555555;" transform="translate(305.953638 381.660909)rotate(-30)scale(0.1 -0.1)">
       <defs>
        <path d="M 10.796875 72.90625 
L 49.515625 72.90625 
L 49.515625 64.59375 
L 19.828125 64.59375 
L 19.828125 46.734375 
Q 21.96875 47.46875 24.109375 47.828125 
Q 26.265625 48.1875 28.421875 48.1875 
Q 40.625 48.1875 47.75 41.5 
Q 54.890625 34.8125 54.890625 23.390625 
Q 54.890625 11.625 47.5625 5.09375 
Q 40.234375 -1.421875 26.90625 -1.421875 
Q 22.3125 -1.421875 17.546875 -0.640625 
Q 12.796875 0.140625 7.71875 1.703125 
L 7.71875 11.625 
Q 12.109375 9.234375 16.796875 8.0625 
Q 21.484375 6.890625 26.703125 6.890625 
Q 35.15625 6.890625 40.078125 11.328125 
Q 45.015625 15.765625 45.015625 23.390625 
Q 45.015625 31 40.078125 35.4375 
Q 35.15625 39.890625 26.703125 39.890625 
Q 22.75 39.890625 18.8125 39.015625 
Q 14.890625 38.140625 10.796875 36.28125 
z
" id="DejaVuSans-53"/>
       </defs>
       <use xlink:href="#DejaVuSans-49"/>
       <use x="63.623047" xlink:href="#DejaVuSans-49"/>
       <use x="127.246094" xlink:href="#DejaVuSans-45"/>
       <use x="163.330078" xlink:href="#DejaVuSans-50"/>
       <use x="226.953125" xlink:href="#DejaVuSans-54"/>
       <use x="290.576172" xlink:href="#DejaVuSans-32"/>
       <use x="322.363281" xlink:href="#DejaVuSans-49"/>
       <use x="385.986328" xlink:href="#DejaVuSans-53"/>
      </g>
     </g>
    </g>
    <g id="xtick_7">
     <g id="line2d_13">
      <path clip-path="url(#p00dc931224)" d="M 396.66629 345.6 
L 396.66629 51.84 
" style="fill:none;stroke:#ffffff;stroke-linecap:square;stroke-width:0.8;"/>
     </g>
     <g id="line2d_14">
      <g>
       <use style="fill:#555555;stroke:#555555;stroke-width:0.8;" x="396.66629" xlink:href="#m05d3767899" y="345.6"/>
      </g>
     </g>
     <g id="text_7">
      <!-- 11-26 18 -->
      <g style="fill:#555555;" transform="translate(356.689132 381.660909)rotate(-30)scale(0.1 -0.1)">
       <defs>
        <path d="M 31.78125 34.625 
Q 24.75 34.625 20.71875 30.859375 
Q 16.703125 27.09375 16.703125 20.515625 
Q 16.703125 13.921875 20.71875 10.15625 
Q 24.75 6.390625 31.78125 6.390625 
Q 38.8125 6.390625 42.859375 10.171875 
Q 46.921875 13.96875 46.921875 20.515625 
Q 46.921875 27.09375 42.890625 30.859375 
Q 38.875 34.625 31.78125 34.625 
z
M 21.921875 38.8125 
Q 15.578125 40.375 12.03125 44.71875 
Q 8.5 49.078125 8.5 55.328125 
Q 8.5 64.0625 14.71875 69.140625 
Q 20.953125 74.21875 31.78125 74.21875 
Q 42.671875 74.21875 48.875 69.140625 
Q 55.078125 64.0625 55.078125 55.328125 
Q 55.078125 49.078125 51.53125 44.71875 
Q 48 40.375 41.703125 38.8125 
Q 48.828125 37.15625 52.796875 32.3125 
Q 56.78125 27.484375 56.78125 20.515625 
Q 56.78125 9.90625 50.3125 4.234375 
Q 43.84375 -1.421875 31.78125 -1.421875 
Q 19.734375 -1.421875 13.25 4.234375 
Q 6.78125 9.90625 6.78125 20.515625 
Q 6.78125 27.484375 10.78125 32.3125 
Q 14.796875 37.15625 21.921875 38.8125 
z
M 18.3125 54.390625 
Q 18.3125 48.734375 21.84375 45.5625 
Q 25.390625 42.390625 31.78125 42.390625 
Q 38.140625 42.390625 41.71875 45.5625 
Q 45.3125 48.734375 45.3125 54.390625 
Q 45.3125 60.0625 41.71875 63.234375 
Q 38.140625 66.40625 31.78125 66.40625 
Q 25.390625 66.40625 21.84375 63.234375 
Q 18.3125 60.0625 18.3125 54.390625 
z
" id="DejaVuSans-56"/>
       </defs>
       <use xlink:href="#DejaVuSans-49"/>
       <use x="63.623047" xlink:href="#DejaVuSans-49"/>
       <use x="127.246094" xlink:href="#DejaVuSans-45"/>
       <use x="163.330078" xlink:href="#DejaVuSans-50"/>
       <use x="226.953125" xlink:href="#DejaVuSans-54"/>
       <use x="290.576172" xlink:href="#DejaVuSans-32"/>
       <use x="322.363281" xlink:href="#DejaVuSans-49"/>
       <use x="385.986328" xlink:href="#DejaVuSans-56"/>
      </g>
     </g>
    </g>
    <g id="xtick_8">
     <g id="line2d_15">
      <path clip-path="url(#p00dc931224)" d="M 447.401784 345.6 
L 447.401784 51.84 
" style="fill:none;stroke:#ffffff;stroke-linecap:square;stroke-width:0.8;"/>
     </g>
     <g id="line2d_16">
      <g>
       <use style="fill:#555555;stroke:#555555;stroke-width:0.8;" x="447.401784" xlink:href="#m05d3767899" y="345.6"/>
      </g>
     </g>
     <g id="text_8">
      <!-- 11-26 21 -->
      <g style="fill:#555555;" transform="translate(407.424626 381.660909)rotate(-30)scale(0.1 -0.1)">
       <use xlink:href="#DejaVuSans-49"/>
       <use x="63.623047" xlink:href="#DejaVuSans-49"/>
       <use x="127.246094" xlink:href="#DejaVuSans-45"/>
       <use x="163.330078" xlink:href="#DejaVuSans-50"/>
       <use x="226.953125" xlink:href="#DejaVuSans-54"/>
       <use x="290.576172" xlink:href="#DejaVuSans-32"/>
       <use x="322.363281" xlink:href="#DejaVuSans-50"/>
       <use x="385.986328" xlink:href="#DejaVuSans-49"/>
      </g>
     </g>
    </g>
    <g id="xtick_9">
     <g id="line2d_17">
      <path clip-path="url(#p00dc931224)" d="M 498.137277 345.6 
L 498.137277 51.84 
" style="fill:none;stroke:#ffffff;stroke-linecap:square;stroke-width:0.8;"/>
     </g>
     <g id="line2d_18">
      <g>
       <use style="fill:#555555;stroke:#555555;stroke-width:0.8;" x="498.137277" xlink:href="#m05d3767899" y="345.6"/>
      </g>
     </g>
     <g id="text_9">
      <!-- 11-27 00 -->
      <g style="fill:#555555;" transform="translate(458.160119 381.660909)rotate(-30)scale(0.1 -0.1)">
       <defs>
        <path d="M 8.203125 72.90625 
L 55.078125 72.90625 
L 55.078125 68.703125 
L 28.609375 0 
L 18.3125 0 
L 43.21875 64.59375 
L 8.203125 64.59375 
z
" id="DejaVuSans-55"/>
       </defs>
       <use xlink:href="#DejaVuSans-49"/>
       <use x="63.623047" xlink:href="#DejaVuSans-49"/>
       <use x="127.246094" xlink:href="#DejaVuSans-45"/>
       <use x="163.330078" xlink:href="#DejaVuSans-50"/>
       <use x="226.953125" xlink:href="#DejaVuSans-55"/>
       <use x="290.576172" xlink:href="#DejaVuSans-32"/>
       <use x="322.363281" xlink:href="#DejaVuSans-48"/>
       <use x="385.986328" xlink:href="#DejaVuSans-48"/>
      </g>
     </g>
    </g>
    <g id="text_10">
     <!-- date -->
     <g style="fill:#555555;" transform="translate(281.67 396.580096)scale(0.12 -0.12)">
      <defs>
       <path d="M 45.40625 46.390625 
L 45.40625 75.984375 
L 54.390625 75.984375 
L 54.390625 0 
L 45.40625 0 
L 45.40625 8.203125 
Q 42.578125 3.328125 38.25 0.953125 
Q 33.9375 -1.421875 27.875 -1.421875 
Q 17.96875 -1.421875 11.734375 6.484375 
Q 5.515625 14.40625 5.515625 27.296875 
Q 5.515625 40.1875 11.734375 48.09375 
Q 17.96875 56 27.875 56 
Q 33.9375 56 38.25 53.625 
Q 42.578125 51.265625 45.40625 46.390625 
z
M 14.796875 27.296875 
Q 14.796875 17.390625 18.875 11.75 
Q 22.953125 6.109375 30.078125 6.109375 
Q 37.203125 6.109375 41.296875 11.75 
Q 45.40625 17.390625 45.40625 27.296875 
Q 45.40625 37.203125 41.296875 42.84375 
Q 37.203125 48.484375 30.078125 48.484375 
Q 22.953125 48.484375 18.875 42.84375 
Q 14.796875 37.203125 14.796875 27.296875 
z
" id="DejaVuSans-100"/>
       <path d="M 34.28125 27.484375 
Q 23.390625 27.484375 19.1875 25 
Q 14.984375 22.515625 14.984375 16.5 
Q 14.984375 11.71875 18.140625 8.90625 
Q 21.296875 6.109375 26.703125 6.109375 
Q 34.1875 6.109375 38.703125 11.40625 
Q 43.21875 16.703125 43.21875 25.484375 
L 43.21875 27.484375 
z
M 52.203125 31.203125 
L 52.203125 0 
L 43.21875 0 
L 43.21875 8.296875 
Q 40.140625 3.328125 35.546875 0.953125 
Q 30.953125 -1.421875 24.3125 -1.421875 
Q 15.921875 -1.421875 10.953125 3.296875 
Q 6 8.015625 6 15.921875 
Q 6 25.140625 12.171875 29.828125 
Q 18.359375 34.515625 30.609375 34.515625 
L 43.21875 34.515625 
L 43.21875 35.40625 
Q 43.21875 41.609375 39.140625 45 
Q 35.0625 48.390625 27.6875 48.390625 
Q 23 48.390625 18.546875 47.265625 
Q 14.109375 46.140625 10.015625 43.890625 
L 10.015625 52.203125 
Q 14.9375 54.109375 19.578125 55.046875 
Q 24.21875 56 28.609375 56 
Q 40.484375 56 46.34375 49.84375 
Q 52.203125 43.703125 52.203125 31.203125 
z
" id="DejaVuSans-97"/>
       <path d="M 18.3125 70.21875 
L 18.3125 54.6875 
L 36.8125 54.6875 
L 36.8125 47.703125 
L 18.3125 47.703125 
L 18.3125 18.015625 
Q 18.3125 11.328125 20.140625 9.421875 
Q 21.96875 7.515625 27.59375 7.515625 
L 36.8125 7.515625 
L 36.8125 0 
L 27.59375 0 
Q 17.1875 0 13.234375 3.875 
Q 9.28125 7.765625 9.28125 18.015625 
L 9.28125 47.703125 
L 2.6875 47.703125 
L 2.6875 54.6875 
L 9.28125 54.6875 
L 9.28125 70.21875 
z
" id="DejaVuSans-116"/>
       <path d="M 56.203125 29.59375 
L 56.203125 25.203125 
L 14.890625 25.203125 
Q 15.484375 15.921875 20.484375 11.0625 
Q 25.484375 6.203125 34.421875 6.203125 
Q 39.59375 6.203125 44.453125 7.46875 
Q 49.3125 8.734375 54.109375 11.28125 
L 54.109375 2.78125 
Q 49.265625 0.734375 44.1875 -0.34375 
Q 39.109375 -1.421875 33.890625 -1.421875 
Q 20.796875 -1.421875 13.15625 6.1875 
Q 5.515625 13.8125 5.515625 26.8125 
Q 5.515625 40.234375 12.765625 48.109375 
Q 20.015625 56 32.328125 56 
Q 43.359375 56 49.78125 48.890625 
Q 56.203125 41.796875 56.203125 29.59375 
z
M 47.21875 32.234375 
Q 47.125 39.59375 43.09375 43.984375 
Q 39.0625 48.390625 32.421875 48.390625 
Q 24.90625 48.390625 20.390625 44.140625 
Q 15.875 39.890625 15.1875 32.171875 
z
" id="DejaVuSans-101"/>
      </defs>
      <use xlink:href="#DejaVuSans-100"/>
      <use x="63.476562" xlink:href="#DejaVuSans-97"/>
      <use x="124.755859" xlink:href="#DejaVuSans-116"/>
      <use x="163.964844" xlink:href="#DejaVuSans-101"/>
     </g>
    </g>
   </g>
   <g id="matplotlib.axis_2">
    <g id="ytick_1">
     <g id="line2d_19">
      <path clip-path="url(#p00dc931224)" d="M 72 324.275495 
L 518.4 324.275495 
" style="fill:none;stroke:#ffffff;stroke-linecap:square;stroke-width:0.8;"/>
     </g>
     <g id="line2d_20">
      <defs>
       <path d="M 0 0 
L -3.5 0 
" id="m189a1b247b" style="stroke:#555555;stroke-width:0.8;"/>
      </defs>
      <g>
       <use style="fill:#555555;stroke:#555555;stroke-width:0.8;" x="72" xlink:href="#m189a1b247b" y="324.275495"/>
      </g>
     </g>
     <g id="text_11">
      <!-- 54 -->
      <g style="fill:#555555;" transform="translate(52.275 328.074714)scale(0.1 -0.1)">
       <defs>
        <path d="M 37.796875 64.3125 
L 12.890625 25.390625 
L 37.796875 25.390625 
z
M 35.203125 72.90625 
L 47.609375 72.90625 
L 47.609375 25.390625 
L 58.015625 25.390625 
L 58.015625 17.1875 
L 47.609375 17.1875 
L 47.609375 0 
L 37.796875 0 
L 37.796875 17.1875 
L 4.890625 17.1875 
L 4.890625 26.703125 
z
" id="DejaVuSans-52"/>
       </defs>
       <use xlink:href="#DejaVuSans-53"/>
       <use x="63.623047" xlink:href="#DejaVuSans-52"/>
      </g>
     </g>
    </g>
    <g id="ytick_2">
     <g id="line2d_21">
      <path clip-path="url(#p00dc931224)" d="M 72 284.416608 
L 518.4 284.416608 
" style="fill:none;stroke:#ffffff;stroke-linecap:square;stroke-width:0.8;"/>
     </g>
     <g id="line2d_22">
      <g>
       <use style="fill:#555555;stroke:#555555;stroke-width:0.8;" x="72" xlink:href="#m189a1b247b" y="284.416608"/>
      </g>
     </g>
     <g id="text_12">
      <!-- 55 -->
      <g style="fill:#555555;" transform="translate(52.275 288.215827)scale(0.1 -0.1)">
       <use xlink:href="#DejaVuSans-53"/>
       <use x="63.623047" xlink:href="#DejaVuSans-53"/>
      </g>
     </g>
    </g>
    <g id="ytick_3">
     <g id="line2d_23">
      <path clip-path="url(#p00dc931224)" d="M 72 244.55772 
L 518.4 244.55772 
" style="fill:none;stroke:#ffffff;stroke-linecap:square;stroke-width:0.8;"/>
     </g>
     <g id="line2d_24">
      <g>
       <use style="fill:#555555;stroke:#555555;stroke-width:0.8;" x="72" xlink:href="#m189a1b247b" y="244.55772"/>
      </g>
     </g>
     <g id="text_13">
      <!-- 56 -->
      <g style="fill:#555555;" transform="translate(52.275 248.356939)scale(0.1 -0.1)">
       <use xlink:href="#DejaVuSans-53"/>
       <use x="63.623047" xlink:href="#DejaVuSans-54"/>
      </g>
     </g>
    </g>
    <g id="ytick_4">
     <g id="line2d_25">
      <path clip-path="url(#p00dc931224)" d="M 72 204.698833 
L 518.4 204.698833 
" style="fill:none;stroke:#ffffff;stroke-linecap:square;stroke-width:0.8;"/>
     </g>
     <g id="line2d_26">
      <g>
       <use style="fill:#555555;stroke:#555555;stroke-width:0.8;" x="72" xlink:href="#m189a1b247b" y="204.698833"/>
      </g>
     </g>
     <g id="text_14">
      <!-- 57 -->
      <g style="fill:#555555;" transform="translate(52.275 208.498052)scale(0.1 -0.1)">
       <use xlink:href="#DejaVuSans-53"/>
       <use x="63.623047" xlink:href="#DejaVuSans-55"/>
      </g>
     </g>
    </g>
    <g id="ytick_5">
     <g id="line2d_27">
      <path clip-path="url(#p00dc931224)" d="M 72 164.839946 
L 518.4 164.839946 
" style="fill:none;stroke:#ffffff;stroke-linecap:square;stroke-width:0.8;"/>
     </g>
     <g id="line2d_28">
      <g>
       <use style="fill:#555555;stroke:#555555;stroke-width:0.8;" x="72" xlink:href="#m189a1b247b" y="164.839946"/>
      </g>
     </g>
     <g id="text_15">
      <!-- 58 -->
      <g style="fill:#555555;" transform="translate(52.275 168.639164)scale(0.1 -0.1)">
       <use xlink:href="#DejaVuSans-53"/>
       <use x="63.623047" xlink:href="#DejaVuSans-56"/>
      </g>
     </g>
    </g>
    <g id="ytick_6">
     <g id="line2d_29">
      <path clip-path="url(#p00dc931224)" d="M 72 124.981058 
L 518.4 124.981058 
" style="fill:none;stroke:#ffffff;stroke-linecap:square;stroke-width:0.8;"/>
     </g>
     <g id="line2d_30">
      <g>
       <use style="fill:#555555;stroke:#555555;stroke-width:0.8;" x="72" xlink:href="#m189a1b247b" y="124.981058"/>
      </g>
     </g>
     <g id="text_16">
      <!-- 59 -->
      <g style="fill:#555555;" transform="translate(52.275 128.780277)scale(0.1 -0.1)">
       <use xlink:href="#DejaVuSans-53"/>
       <use x="63.623047" xlink:href="#DejaVuSans-57"/>
      </g>
     </g>
    </g>
    <g id="ytick_7">
     <g id="line2d_31">
      <path clip-path="url(#p00dc931224)" d="M 72 85.122171 
L 518.4 85.122171 
" style="fill:none;stroke:#ffffff;stroke-linecap:square;stroke-width:0.8;"/>
     </g>
     <g id="line2d_32">
      <g>
       <use style="fill:#555555;stroke:#555555;stroke-width:0.8;" x="72" xlink:href="#m189a1b247b" y="85.122171"/>
      </g>
     </g>
     <g id="text_17">
      <!-- 60 -->
      <g style="fill:#555555;" transform="translate(52.275 88.92139)scale(0.1 -0.1)">
       <use xlink:href="#DejaVuSans-54"/>
       <use x="63.623047" xlink:href="#DejaVuSans-48"/>
      </g>
     </g>
    </g>
    <g id="text_18">
     <!-- relative humidity (%) -->
     <g style="fill:#555555;" transform="translate(45.779375 262.041562)rotate(-90)scale(0.12 -0.12)">
      <defs>
       <path d="M 41.109375 46.296875 
Q 39.59375 47.171875 37.8125 47.578125 
Q 36.03125 48 33.890625 48 
Q 26.265625 48 22.1875 43.046875 
Q 18.109375 38.09375 18.109375 28.8125 
L 18.109375 0 
L 9.078125 0 
L 9.078125 54.6875 
L 18.109375 54.6875 
L 18.109375 46.1875 
Q 20.953125 51.171875 25.484375 53.578125 
Q 30.03125 56 36.53125 56 
Q 37.453125 56 38.578125 55.875 
Q 39.703125 55.765625 41.0625 55.515625 
z
" id="DejaVuSans-114"/>
       <path d="M 9.421875 75.984375 
L 18.40625 75.984375 
L 18.40625 0 
L 9.421875 0 
z
" id="DejaVuSans-108"/>
       <path d="M 9.421875 54.6875 
L 18.40625 54.6875 
L 18.40625 0 
L 9.421875 0 
z
M 9.421875 75.984375 
L 18.40625 75.984375 
L 18.40625 64.59375 
L 9.421875 64.59375 
z
" id="DejaVuSans-105"/>
       <path d="M 2.984375 54.6875 
L 12.5 54.6875 
L 29.59375 8.796875 
L 46.6875 54.6875 
L 56.203125 54.6875 
L 35.6875 0 
L 23.484375 0 
z
" id="DejaVuSans-118"/>
       <path d="M 54.890625 33.015625 
L 54.890625 0 
L 45.90625 0 
L 45.90625 32.71875 
Q 45.90625 40.484375 42.875 44.328125 
Q 39.84375 48.1875 33.796875 48.1875 
Q 26.515625 48.1875 22.3125 43.546875 
Q 18.109375 38.921875 18.109375 30.90625 
L 18.109375 0 
L 9.078125 0 
L 9.078125 75.984375 
L 18.109375 75.984375 
L 18.109375 46.1875 
Q 21.34375 51.125 25.703125 53.5625 
Q 30.078125 56 35.796875 56 
Q 45.21875 56 50.046875 50.171875 
Q 54.890625 44.34375 54.890625 33.015625 
z
" id="DejaVuSans-104"/>
       <path d="M 8.5 21.578125 
L 8.5 54.6875 
L 17.484375 54.6875 
L 17.484375 21.921875 
Q 17.484375 14.15625 20.5 10.265625 
Q 23.53125 6.390625 29.59375 6.390625 
Q 36.859375 6.390625 41.078125 11.03125 
Q 45.3125 15.671875 45.3125 23.6875 
L 45.3125 54.6875 
L 54.296875 54.6875 
L 54.296875 0 
L 45.3125 0 
L 45.3125 8.40625 
Q 42.046875 3.421875 37.71875 1 
Q 33.40625 -1.421875 27.6875 -1.421875 
Q 18.265625 -1.421875 13.375 4.4375 
Q 8.5 10.296875 8.5 21.578125 
z
M 31.109375 56 
z
" id="DejaVuSans-117"/>
       <path d="M 52 44.1875 
Q 55.375 50.25 60.0625 53.125 
Q 64.75 56 71.09375 56 
Q 79.640625 56 84.28125 50.015625 
Q 88.921875 44.046875 88.921875 33.015625 
L 88.921875 0 
L 79.890625 0 
L 79.890625 32.71875 
Q 79.890625 40.578125 77.09375 44.375 
Q 74.3125 48.1875 68.609375 48.1875 
Q 61.625 48.1875 57.5625 43.546875 
Q 53.515625 38.921875 53.515625 30.90625 
L 53.515625 0 
L 44.484375 0 
L 44.484375 32.71875 
Q 44.484375 40.625 41.703125 44.40625 
Q 38.921875 48.1875 33.109375 48.1875 
Q 26.21875 48.1875 22.15625 43.53125 
Q 18.109375 38.875 18.109375 30.90625 
L 18.109375 0 
L 9.078125 0 
L 9.078125 54.6875 
L 18.109375 54.6875 
L 18.109375 46.1875 
Q 21.1875 51.21875 25.484375 53.609375 
Q 29.78125 56 35.6875 56 
Q 41.65625 56 45.828125 52.96875 
Q 50 49.953125 52 44.1875 
z
" id="DejaVuSans-109"/>
       <path d="M 32.171875 -5.078125 
Q 28.375 -14.84375 24.75 -17.8125 
Q 21.140625 -20.796875 15.09375 -20.796875 
L 7.90625 -20.796875 
L 7.90625 -13.28125 
L 13.1875 -13.28125 
Q 16.890625 -13.28125 18.9375 -11.515625 
Q 21 -9.765625 23.484375 -3.21875 
L 25.09375 0.875 
L 2.984375 54.6875 
L 12.5 54.6875 
L 29.59375 11.921875 
L 46.6875 54.6875 
L 56.203125 54.6875 
z
" id="DejaVuSans-121"/>
       <path d="M 31 75.875 
Q 24.46875 64.65625 21.28125 53.65625 
Q 18.109375 42.671875 18.109375 31.390625 
Q 18.109375 20.125 21.3125 9.0625 
Q 24.515625 -2 31 -13.1875 
L 23.1875 -13.1875 
Q 15.875 -1.703125 12.234375 9.375 
Q 8.59375 20.453125 8.59375 31.390625 
Q 8.59375 42.28125 12.203125 53.3125 
Q 15.828125 64.359375 23.1875 75.875 
z
" id="DejaVuSans-40"/>
       <path d="M 72.703125 32.078125 
Q 68.453125 32.078125 66.03125 28.46875 
Q 63.625 24.859375 63.625 18.40625 
Q 63.625 12.0625 66.03125 8.421875 
Q 68.453125 4.78125 72.703125 4.78125 
Q 76.859375 4.78125 79.265625 8.421875 
Q 81.6875 12.0625 81.6875 18.40625 
Q 81.6875 24.8125 79.265625 28.4375 
Q 76.859375 32.078125 72.703125 32.078125 
z
M 72.703125 38.28125 
Q 80.421875 38.28125 84.953125 32.90625 
Q 89.5 27.546875 89.5 18.40625 
Q 89.5 9.28125 84.9375 3.921875 
Q 80.375 -1.421875 72.703125 -1.421875 
Q 64.890625 -1.421875 60.34375 3.921875 
Q 55.8125 9.28125 55.8125 18.40625 
Q 55.8125 27.59375 60.375 32.9375 
Q 64.9375 38.28125 72.703125 38.28125 
z
M 22.3125 68.015625 
Q 18.109375 68.015625 15.6875 64.375 
Q 13.28125 60.75 13.28125 54.390625 
Q 13.28125 47.953125 15.671875 44.328125 
Q 18.0625 40.71875 22.3125 40.71875 
Q 26.5625 40.71875 28.96875 44.328125 
Q 31.390625 47.953125 31.390625 54.390625 
Q 31.390625 60.6875 28.953125 64.34375 
Q 26.515625 68.015625 22.3125 68.015625 
z
M 66.40625 74.21875 
L 74.21875 74.21875 
L 28.609375 -1.421875 
L 20.796875 -1.421875 
z
M 22.3125 74.21875 
Q 30.03125 74.21875 34.609375 68.875 
Q 39.203125 63.53125 39.203125 54.390625 
Q 39.203125 45.171875 34.640625 39.84375 
Q 30.078125 34.515625 22.3125 34.515625 
Q 14.546875 34.515625 10.03125 39.859375 
Q 5.515625 45.21875 5.515625 54.390625 
Q 5.515625 63.484375 10.046875 68.84375 
Q 14.59375 74.21875 22.3125 74.21875 
z
" id="DejaVuSans-37"/>
       <path d="M 8.015625 75.875 
L 15.828125 75.875 
Q 23.140625 64.359375 26.78125 53.3125 
Q 30.421875 42.28125 30.421875 31.390625 
Q 30.421875 20.453125 26.78125 9.375 
Q 23.140625 -1.703125 15.828125 -13.1875 
L 8.015625 -13.1875 
Q 14.5 -2 17.703125 9.0625 
Q 20.90625 20.125 20.90625 31.390625 
Q 20.90625 42.671875 17.703125 53.65625 
Q 14.5 64.65625 8.015625 75.875 
z
" id="DejaVuSans-41"/>
      </defs>
      <use xlink:href="#DejaVuSans-114"/>
      <use x="38.863281" xlink:href="#DejaVuSans-101"/>
      <use x="100.386719" xlink:href="#DejaVuSans-108"/>
      <use x="128.169922" xlink:href="#DejaVuSans-97"/>
      <use x="189.449219" xlink:href="#DejaVuSans-116"/>
      <use x="228.658203" xlink:href="#DejaVuSans-105"/>
      <use x="256.441406" xlink:href="#DejaVuSans-118"/>
      <use x="315.621094" xlink:href="#DejaVuSans-101"/>
      <use x="377.144531" xlink:href="#DejaVuSans-32"/>
      <use x="408.931641" xlink:href="#DejaVuSans-104"/>
      <use x="472.310547" xlink:href="#DejaVuSans-117"/>
      <use x="535.689453" xlink:href="#DejaVuSans-109"/>
      <use x="633.101562" xlink:href="#DejaVuSans-105"/>
      <use x="660.884766" xlink:href="#DejaVuSans-100"/>
      <use x="724.361328" xlink:href="#DejaVuSans-105"/>
      <use x="752.144531" xlink:href="#DejaVuSans-116"/>
      <use x="791.353516" xlink:href="#DejaVuSans-121"/>
      <use x="850.533203" xlink:href="#DejaVuSans-32"/>
      <use x="882.320312" xlink:href="#DejaVuSans-40"/>
      <use x="921.333984" xlink:href="#DejaVuSans-37"/>
      <use x="1016.353516" xlink:href="#DejaVuSans-41"/>
     </g>
    </g>
   </g>
   <g id="line2d_33">
    <path clip-path="url(#p00dc931224)" d="M 92.290909 105.051615 
L 92.384864 109.037503 
L 92.525796 105.051615 
L 92.61975 109.037503 
L 92.760682 105.051615 
L 93.183478 105.051615 
L 93.32441 101.065726 
L 93.418365 101.065726 
L 93.559296 105.051615 
L 93.606274 101.065726 
L 93.653251 105.051615 
L 93.700228 105.051615 
L 93.84116 101.065726 
L 94.874661 101.065726 
L 94.968616 105.051615 
L 95.06257 101.065726 
L 95.109548 105.051615 
L 95.156525 101.065726 
L 95.344434 101.065726 
L 95.438389 105.051615 
L 95.579321 101.065726 
L 95.673275 101.065726 
L 95.720253 105.051615 
L 95.76723 101.065726 
L 97.740277 101.065726 
L 97.881209 97.079837 
L 97.928186 97.079837 
L 97.975163 101.065726 
L 98.022141 97.079837 
L 98.585869 97.079837 
L 98.7268 101.065726 
L 98.773778 101.065726 
L 98.91471 97.079837 
L 102.813826 97.079837 
L 102.954758 93.093948 
L 103.048713 97.079837 
L 103.189645 93.093948 
L 103.330577 93.093948 
L 103.471509 97.079837 
L 103.706395 97.079837 
L 103.847327 93.093948 
L 105.397578 93.093948 
L 105.444556 89.10806 
L 105.491533 93.093948 
L 106.196193 93.093948 
L 106.337124 89.10806 
L 106.478056 93.093948 
L 106.572011 93.093948 
L 106.665966 89.10806 
L 106.712943 93.093948 
L 106.75992 89.10806 
L 107.605512 89.10806 
L 107.746444 85.122171 
L 108.028308 85.122171 
L 108.122262 89.10806 
L 108.263194 85.122171 
L 108.967854 85.122171 
L 109.061808 81.136282 
L 109.155763 85.122171 
L 109.296695 81.136282 
L 110.799969 81.136282 
L 110.940901 77.150393 
L 111.034855 81.136282 
L 111.12881 77.150393 
L 111.222765 81.136282 
L 111.363697 77.150393 
L 111.598583 77.150393 
L 111.739515 81.136282 
L 111.786492 81.136282 
L 111.927424 77.150393 
L 112.773016 77.150393 
L 112.819993 73.164505 
L 112.86697 77.150393 
L 113.05488 77.150393 
L 113.195812 73.164505 
L 113.242789 73.164505 
L 113.336744 77.150393 
L 113.430698 73.164505 
L 113.57163 77.150393 
L 113.853494 77.150393 
L 113.994426 73.164505 
L 115.591654 73.164505 
L 115.638632 69.178616 
L 115.685609 73.164505 
L 116.953996 73.164505 
L 117.000974 69.178616 
L 117.047951 73.164505 
L 117.799588 73.164505 
L 117.846565 69.178616 
L 117.893543 73.164505 
L 118.551225 73.164505 
L 118.692157 69.178616 
L 118.833089 73.164505 
L 118.927043 73.164505 
L 119.067975 69.178616 
L 119.631703 69.178616 
L 119.725658 73.164505 
L 119.866589 69.178616 
L 120.007521 73.164505 
L 120.054499 73.164505 
L 120.148453 69.178616 
L 120.289385 73.164505 
L 120.618226 73.164505 
L 120.712181 69.178616 
L 120.853113 73.164505 
L 121.322886 73.164505 
L 121.369863 69.178616 
L 121.416841 73.164505 
L 121.510795 73.164505 
L 121.651727 69.178616 
L 121.745682 73.164505 
L 121.886614 69.178616 
L 122.027546 69.178616 
L 122.1215 73.164505 
L 122.262432 69.178616 
L 124.893162 69.178616 
L 125.034093 65.192727 
L 125.081071 65.192727 
L 125.222003 69.178616 
L 125.315957 69.178616 
L 125.409912 65.192727 
L 125.503867 69.178616 
L 125.644799 65.192727 
L 127.19505 65.192727 
L 127.335982 69.178616 
L 127.382959 65.192727 
L 127.570868 69.178616 
L 127.664823 69.178616 
L 127.758777 65.192727 
L 127.899709 69.178616 
L 128.980187 69.178616 
L 129.027165 73.164505 
L 129.074142 69.178616 
L 130.906257 69.178616 
L 130.953234 73.164505 
L 131.000212 69.178616 
L 131.235098 69.178616 
L 131.37603 73.164505 
L 132.977956 73.164505 
L 133.024934 69.178616 
L 133.071911 73.164505 
L 134.387276 73.164505 
L 134.434253 77.150393 
L 134.48123 73.164505 
L 137.581733 73.164505 
L 137.722665 77.150393 
L 138.004529 77.150393 
L 138.051506 73.164505 
L 138.098483 77.150393 
L 138.33337 77.150393 
L 138.474302 73.164505 
L 138.521279 77.150393 
L 138.568256 73.164505 
L 138.662211 73.164505 
L 138.803143 77.150393 
L 139.695712 77.150393 
L 139.789666 73.164505 
L 139.883621 77.150393 
L 139.977575 73.164505 
L 140.165485 77.150393 
L 140.306417 77.150393 
L 140.447349 73.164505 
L 140.541303 73.164505 
L 140.588281 77.150393 
L 140.635258 73.164505 
L 140.682235 73.164505 
L 140.77619 77.150393 
L 140.917122 73.164505 
L 140.964099 73.164505 
L 141.105031 77.150393 
L 141.386895 77.150393 
L 141.433872 73.164505 
L 141.480849 77.150393 
L 141.809691 77.150393 
L 141.856668 73.164505 
L 141.903645 77.150393 
L 142.326441 77.150393 
L 142.373418 73.164505 
L 142.420396 77.150393 
L 143.172033 77.150393 
L 143.265987 73.164505 
L 143.406919 77.150393 
L 143.73576 77.150393 
L 143.782738 73.164505 
L 143.829715 77.150393 
L 144.863216 77.150393 
L 144.910193 73.164505 
L 144.95717 77.150393 
L 145.004148 77.150393 
L 145.051125 73.164505 
L 145.098102 77.150393 
L 145.473921 77.150393 
L 145.614853 73.164505 
L 145.755785 77.150393 
L 145.990671 77.150393 
L 146.037648 73.164505 
L 146.084626 77.150393 
L 146.272535 77.150393 
L 146.319512 73.164505 
L 146.36649 77.150393 
L 146.460444 77.150393 
L 146.601376 73.164505 
L 146.648353 73.164505 
L 146.789285 77.150393 
L 146.836263 77.150393 
L 146.930217 73.164505 
L 147.071149 77.150393 
L 147.118126 77.150393 
L 147.259058 73.164505 
L 148.10465 73.164505 
L 148.245582 77.150393 
L 148.386514 77.150393 
L 148.433491 73.164505 
L 148.480468 77.150393 
L 148.6214 77.150393 
L 148.668378 73.164505 
L 148.715355 77.150393 
L 148.856287 77.150393 
L 148.903264 73.164505 
L 148.950242 77.150393 
L 149.138151 77.150393 
L 149.185128 73.164505 
L 149.232105 77.150393 
L 149.279083 77.150393 
L 149.420015 73.164505 
L 149.466992 77.150393 
L 149.513969 73.164505 
L 149.748856 73.164505 
L 149.889788 77.150393 
L 150.218629 77.150393 
L 150.265606 73.164505 
L 150.312583 77.150393 
L 150.406538 77.150393 
L 150.54747 73.164505 
L 150.876311 73.164505 
L 150.923288 77.150393 
L 150.970266 73.164505 
L 151.440039 73.164505 
L 151.580971 77.150393 
L 151.674925 77.150393 
L 151.815857 73.164505 
L 151.909812 73.164505 
L 152.050744 77.150393 
L 152.097721 77.150393 
L 152.238653 73.164505 
L 152.520517 73.164505 
L 152.661449 77.150393 
L 152.708426 77.150393 
L 152.849358 73.164505 
L 152.99029 73.164505 
L 153.131222 77.150393 
L 153.272154 77.150393 
L 153.413086 73.164505 
L 153.460063 77.150393 
L 153.50704 73.164505 
L 153.600995 73.164505 
L 153.741927 77.150393 
L 153.882859 77.150393 
L 153.976814 73.164505 
L 154.117746 77.150393 
L 154.164723 77.150393 
L 154.305655 73.164505 
L 154.399609 77.150393 
L 154.493564 73.164505 
L 154.634496 77.150393 
L 154.775428 73.164505 
L 154.822405 73.164505 
L 154.91636 77.150393 
L 155.057292 73.164505 
L 155.104269 73.164505 
L 155.151246 77.150393 
L 155.198224 73.164505 
L 155.43311 73.164505 
L 155.480087 77.150393 
L 155.527065 73.164505 
L 156.090792 73.164505 
L 156.231724 77.150393 
L 156.372656 73.164505 
L 156.560566 73.164505 
L 156.701498 77.150393 
L 156.748475 77.150393 
L 156.889407 73.164505 
L 157.500112 73.164505 
L 157.547089 77.150393 
L 157.594066 73.164505 
L 157.87593 73.164505 
L 158.016862 77.150393 
L 158.110817 77.150393 
L 158.251749 73.164505 
L 158.298726 77.150393 
L 158.345703 73.164505 
L 158.721522 73.164505 
L 158.862454 77.150393 
L 158.909431 77.150393 
L 159.050363 73.164505 
L 159.191295 77.150393 
L 159.332227 73.164505 
L 159.473159 77.150393 
L 159.614091 73.164505 
L 159.755023 77.150393 
L 159.942932 77.150393 
L 160.083864 73.164505 
L 160.177818 73.164505 
L 160.31875 77.150393 
L 160.365728 77.150393 
L 160.50666 73.164505 
L 160.600614 77.150393 
L 160.741546 73.164505 
L 160.788523 73.164505 
L 160.929455 77.150393 
L 161.070387 73.164505 
L 161.211319 77.150393 
L 161.399228 77.150393 
L 161.54016 73.164505 
L 161.587138 73.164505 
L 161.72807 77.150393 
L 161.962956 77.150393 
L 162.056911 73.164505 
L 162.197843 77.150393 
L 162.24482 77.150393 
L 162.385752 73.164505 
L 162.479707 77.150393 
L 162.526684 73.164505 
L 162.573661 77.150393 
L 162.620638 77.150393 
L 162.76157 73.164505 
L 162.808548 73.164505 
L 162.94948 77.150393 
L 163.184366 77.150393 
L 163.325298 73.164505 
L 164.17089 73.164505 
L 164.264844 77.150393 
L 164.405776 73.164505 
L 164.452753 77.150393 
L 164.499731 73.164505 
L 164.68764 73.164505 
L 164.734617 77.150393 
L 164.781595 73.164505 
L 165.016481 73.164505 
L 165.063459 77.150393 
L 165.110436 73.164505 
L 165.533232 73.164505 
L 165.580209 77.150393 
L 165.627186 73.164505 
L 165.721141 73.164505 
L 165.768118 77.150393 
L 165.815095 73.164505 
L 166.143937 73.164505 
L 166.284869 77.150393 
L 166.4258 77.150393 
L 166.519755 73.164505 
L 166.660687 77.150393 
L 167.741165 77.150393 
L 167.788142 73.164505 
L 167.83512 77.150393 
L 167.882097 77.150393 
L 167.976052 73.164505 
L 168.116984 77.150393 
L 168.163961 77.150393 
L 168.210938 73.164505 
L 168.257916 77.150393 
L 168.492802 77.150393 
L 168.633734 73.164505 
L 168.774666 77.150393 
L 168.821643 77.150393 
L 168.962575 73.164505 
L 169.197462 73.164505 
L 169.244439 77.150393 
L 169.291416 73.164505 
L 169.479326 73.164505 
L 169.620257 77.150393 
L 169.808167 77.150393 
L 169.949099 81.136282 
L 170.137008 81.136282 
L 170.27794 85.122171 
L 170.324917 85.122171 
L 170.512826 93.093948 
L 170.700736 93.093948 
L 170.888645 101.065726 
L 170.982599 101.065726 
L 171.170509 109.037503 
L 171.452373 109.037503 
L 171.593304 113.023392 
L 171.687259 113.023392 
L 171.828191 117.009281 
L 172.0161 117.009281 
L 172.157032 120.99517 
L 172.344941 120.99517 
L 172.438896 124.981058 
L 172.485873 120.99517 
L 172.532851 124.981058 
L 172.626805 124.981058 
L 172.814715 132.952836 
L 172.908669 132.952836 
L 173.049601 136.938725 
L 173.190533 136.938725 
L 173.378442 144.910502 
L 173.707283 144.910502 
L 173.848215 148.896391 
L 174.083102 148.896391 
L 174.177056 152.88228 
L 174.271011 148.896391 
L 174.45892 156.868168 
L 174.787761 156.868168 
L 174.834739 152.88228 
L 174.881716 156.868168 
L 175.257535 156.868168 
L 175.304512 160.854057 
L 175.351489 156.868168 
L 175.445444 156.868168 
L 175.586376 160.854057 
L 175.633353 156.868168 
L 175.68033 160.854057 
L 175.774285 160.854057 
L 175.915217 164.839946 
L 176.056149 164.839946 
L 176.197081 168.825834 
L 176.619877 168.825834 
L 176.807786 176.797612 
L 176.854763 176.797612 
L 177.042672 184.769389 
L 177.183604 184.769389 
L 177.324536 188.755278 
L 177.371513 188.755278 
L 177.559423 196.727056 
L 177.653377 192.741167 
L 177.794309 196.727056 
L 178.12315 196.727056 
L 178.264082 200.712944 
L 178.358037 200.712944 
L 178.498969 204.698833 
L 178.592924 204.698833 
L 178.686878 200.712944 
L 178.874787 208.684722 
L 178.921765 208.684722 
L 179.015719 204.698833 
L 179.156651 208.684722 
L 179.250606 208.684722 
L 179.391538 212.670611 
L 179.579447 212.670611 
L 179.720379 216.656499 
L 179.814334 216.656499 
L 179.955265 220.642388 
L 180.096197 220.642388 
L 180.237129 224.628277 
L 180.378061 224.628277 
L 180.518993 228.614166 
L 180.75388 228.614166 
L 180.800857 232.600054 
L 180.847834 228.614166 
L 180.894812 228.614166 
L 180.988766 232.600054 
L 181.035744 228.614166 
L 181.082721 232.600054 
L 181.411562 232.600054 
L 181.458539 228.614166 
L 181.505517 232.600054 
L 181.787381 232.600054 
L 181.928312 228.614166 
L 182.069244 228.614166 
L 182.210176 232.600054 
L 182.820881 232.600054 
L 182.961813 236.585943 
L 183.431586 236.585943 
L 183.572518 232.600054 
L 183.71345 236.585943 
L 184.136246 236.585943 
L 184.230201 240.571832 
L 184.371133 236.585943 
L 184.512064 236.585943 
L 184.559042 240.571832 
L 184.606019 236.585943 
L 184.652996 236.585943 
L 184.793928 240.571832 
L 184.93486 236.585943 
L 185.780452 236.585943 
L 185.874406 240.571832 
L 185.921384 236.585943 
L 185.968361 240.571832 
L 186.015338 240.571832 
L 186.15627 236.585943 
L 186.250225 236.585943 
L 186.297202 232.600054 
L 186.34418 236.585943 
L 186.766975 236.585943 
L 186.813953 232.600054 
L 186.86093 236.585943 
L 187.048839 236.585943 
L 187.189771 232.600054 
L 187.236748 232.600054 
L 187.283726 236.585943 
L 187.330703 232.600054 
L 187.37768 232.600054 
L 187.471635 236.585943 
L 187.56559 232.600054 
L 187.706521 236.585943 
L 187.753499 232.600054 
L 187.800476 236.585943 
L 187.847453 236.585943 
L 187.988385 232.600054 
L 188.176295 232.600054 
L 188.223272 236.585943 
L 188.270249 232.600054 
L 188.880954 232.600054 
L 189.021886 228.614166 
L 189.162818 232.600054 
L 189.209795 228.614166 
L 189.256773 232.600054 
L 189.30375 232.600054 
L 189.444682 228.614166 
L 189.585614 232.600054 
L 189.914455 232.600054 
L 189.961432 228.614166 
L 190.00841 232.600054 
L 190.243296 232.600054 
L 190.384228 228.614166 
L 190.431205 228.614166 
L 190.572137 232.600054 
L 190.713069 228.614166 
L 190.900978 228.614166 
L 190.947956 232.600054 
L 190.994933 228.614166 
L 192.075411 228.614166 
L 192.169366 232.600054 
L 192.310298 228.614166 
L 192.498207 228.614166 
L 192.545184 232.600054 
L 192.592162 228.614166 
L 192.780071 228.614166 
L 192.827048 224.628277 
L 192.874025 228.614166 
L 192.96798 228.614166 
L 193.11361 224.628277 
L 193.207564 224.628277 
L 193.348496 228.614166 
L 193.395474 228.614166 
L 193.442451 224.628277 
L 193.489428 228.614166 
L 193.536406 228.614166 
L 193.583383 224.628277 
L 193.63036 228.614166 
L 193.677337 228.614166 
L 193.771292 224.628277 
L 193.865247 228.614166 
L 194.006179 224.628277 
L 194.100133 228.614166 
L 194.241065 224.628277 
L 194.381997 224.628277 
L 194.522929 220.642388 
L 195.274566 220.642388 
L 195.415498 216.656499 
L 196.77784 216.656499 
L 196.824817 220.642388 
L 196.871794 216.656499 
L 198.046227 216.656499 
L 198.187159 212.670611 
L 198.797864 212.670611 
L 198.844841 216.656499 
L 198.891819 212.670611 
L 199.079728 212.670611 
L 199.126705 208.684722 
L 199.173683 212.670611 
L 199.408569 212.670611 
L 199.502524 216.656499 
L 199.643456 212.670611 
L 199.784388 216.656499 
L 200.160206 216.656499 
L 200.207183 220.642388 
L 200.254161 216.656499 
L 201.287662 216.656499 
L 201.334639 212.670611 
L 201.381616 216.656499 
L 202.650003 216.656499 
L 202.790935 212.670611 
L 203.354663 212.670611 
L 203.495595 208.684722 
L 204.012345 208.684722 
L 204.153277 204.698833 
L 204.294209 208.684722 
L 204.341187 208.684722 
L 204.482119 204.698833 
L 204.62305 204.698833 
L 204.717005 208.684722 
L 204.857937 204.698833 
L 204.998869 208.684722 
L 205.280733 208.684722 
L 205.374687 212.670611 
L 205.468642 208.684722 
L 205.609574 212.670611 
L 206.314234 212.670611 
L 206.408188 208.684722 
L 206.54912 212.670611 
L 206.737029 212.670611 
L 206.784007 208.684722 
L 206.830984 212.670611 
L 207.206802 212.670611 
L 207.347734 216.656499 
L 207.535644 216.656499 
L 207.676576 220.642388 
L 207.77053 220.642388 
L 207.911462 216.656499 
L 208.052394 216.656499 
L 208.193326 220.642388 
L 208.240303 216.656499 
L 208.287281 220.642388 
L 208.522167 220.642388 
L 208.569144 224.628277 
L 208.616122 220.642388 
L 208.663099 220.642388 
L 208.804031 224.628277 
L 208.944963 216.656499 
L 209.132872 224.628277 
L 209.273804 220.642388 
L 209.320781 224.628277 
L 209.367759 220.642388 
L 209.6966 220.642388 
L 209.837532 224.628277 
L 210.683123 224.628277 
L 210.824055 220.642388 
L 211.246851 220.642388 
L 211.293828 216.656499 
L 211.340806 220.642388 
L 211.951511 220.642388 
L 212.092443 216.656499 
L 213.219898 216.656499 
L 213.36083 220.642388 
L 213.454785 216.656499 
L 213.548739 220.642388 
L 213.689671 216.656499 
L 214.018512 216.656499 
L 214.112467 220.642388 
L 214.253399 216.656499 
L 214.770149 216.656499 
L 214.864104 212.670611 
L 215.005036 216.656499 
L 215.145968 216.656499 
L 215.192945 212.670611 
L 215.239922 216.656499 
L 215.521786 216.656499 
L 215.662718 212.670611 
L 215.756673 216.656499 
L 215.80365 212.670611 
L 215.850627 216.656499 
L 215.944582 216.656499 
L 216.085514 212.670611 
L 216.367378 212.670611 
L 216.461332 216.656499 
L 216.602264 212.670611 
L 216.884128 212.670611 
L 216.931105 208.684722 
L 216.978083 212.670611 
L 217.119015 212.670611 
L 217.259947 208.684722 
L 218.340425 208.684722 
L 218.481357 204.698833 
L 218.669266 204.698833 
L 218.857175 196.727056 
L 218.904152 196.727056 
L 219.092062 188.755278 
L 219.186016 188.755278 
L 219.373925 180.783501 
L 219.46788 180.783501 
L 219.937653 148.896391 
L 219.984631 152.88228 
L 220.031608 148.896391 
L 220.17254 144.910502 
L 220.360449 144.910502 
L 220.501381 140.924613 
L 220.68929 140.924613 
L 220.830222 136.938725 
L 221.299995 136.938725 
L 221.440927 140.924613 
L 221.487904 136.938725 
L 221.534882 140.924613 
L 222.051632 140.924613 
L 222.192564 136.938725 
L 222.427451 136.938725 
L 222.521405 132.952836 
L 222.662337 136.938725 
L 222.803269 132.952836 
L 222.944201 132.952836 
L 223.038156 128.966947 
L 223.13211 132.952836 
L 223.273042 128.966947 
L 223.366997 128.966947 
L 223.507929 132.952836 
L 224.071656 132.952836 
L 224.212588 128.966947 
L 224.776316 128.966947 
L 224.917248 132.952836 
L 225.011203 132.952836 
L 225.105157 128.966947 
L 225.246089 132.952836 
L 225.293066 132.952836 
L 225.433998 136.938725 
L 225.856794 136.938725 
L 225.950749 140.924613 
L 225.997726 136.938725 
L 226.044703 140.924613 
L 226.138658 140.924613 
L 226.27959 136.938725 
L 226.843318 136.938725 
L 226.98425 132.952836 
L 227.454023 132.952836 
L 227.501 128.966947 
L 227.547977 132.952836 
L 227.641932 132.952836 
L 227.782864 128.966947 
L 227.876818 128.966947 
L 227.923796 132.952836 
L 227.970773 128.966947 
L 229.004274 128.966947 
L 229.145206 124.981058 
L 229.42707 124.981058 
L 229.521024 120.99517 
L 229.849865 120.99517 
L 229.990797 117.009281 
L 230.46057 117.009281 
L 230.601502 120.99517 
L 230.64848 117.009281 
L 230.695457 120.99517 
L 230.977321 120.99517 
L 231.118253 124.981058 
L 231.400117 124.981058 
L 231.447094 120.99517 
L 231.494071 124.981058 
L 231.68198 124.981058 
L 231.822912 128.966947 
L 232.057799 128.966947 
L 232.104776 124.981058 
L 232.151754 128.966947 
L 232.38664 128.966947 
L 232.433617 132.952836 
L 232.480595 128.966947 
L 232.668504 128.966947 
L 232.809436 132.952836 
L 234.500619 132.952836 
L 234.641551 128.966947 
L 235.909938 128.966947 
L 235.956916 124.981058 
L 236.003893 128.966947 
L 237.742053 128.966947 
L 237.789031 124.981058 
L 237.836008 128.966947 
L 237.882985 128.966947 
L 237.929963 124.981058 
L 237.97694 128.966947 
L 238.023917 128.966947 
L 238.164849 124.981058 
L 238.258804 128.966947 
L 238.352758 124.981058 
L 238.49369 128.966947 
L 238.634622 124.981058 
L 239.104395 124.981058 
L 239.245327 128.966947 
L 239.292305 128.966947 
L 239.433236 124.981058 
L 239.480214 124.981058 
L 239.574168 128.966947 
L 239.7151 124.981058 
L 239.856032 128.966947 
L 240.090919 128.966947 
L 240.184873 124.981058 
L 240.325805 128.966947 
L 240.466737 124.981058 
L 240.842556 124.981058 
L 240.889533 120.99517 
L 240.93651 124.981058 
L 241.359306 124.981058 
L 241.500238 120.99517 
L 241.547215 120.99517 
L 241.688147 124.981058 
L 241.829079 124.981058 
L 241.923034 120.99517 
L 242.016988 124.981058 
L 242.110943 120.99517 
L 242.251875 124.981058 
L 242.34583 124.981058 
L 242.486762 120.99517 
L 242.580716 124.981058 
L 242.721648 120.99517 
L 243.050489 120.99517 
L 243.191421 124.981058 
L 243.238398 124.981058 
L 243.332353 120.99517 
L 243.473285 124.981058 
L 243.520262 120.99517 
L 243.56724 124.981058 
L 243.755149 124.981058 
L 243.896081 120.99517 
L 243.943058 124.981058 
L 243.990035 120.99517 
L 244.037013 120.99517 
L 244.08399 124.981058 
L 244.130967 120.99517 
L 244.224922 120.99517 
L 244.365854 124.981058 
L 244.60074 124.981058 
L 244.741672 120.99517 
L 244.882604 124.981058 
L 245.023536 120.99517 
L 245.446332 120.99517 
L 245.493309 124.981058 
L 245.540287 120.99517 
L 246.01006 120.99517 
L 246.057037 124.981058 
L 246.104014 120.99517 
L 246.996583 120.99517 
L 247.043561 124.981058 
L 247.090538 120.99517 
L 248.593812 120.99517 
L 248.687766 117.009281 
L 248.734744 120.99517 
L 248.781721 117.009281 
L 249.063585 117.009281 
L 249.157539 120.99517 
L 249.298471 117.009281 
L 249.392426 120.99517 
L 249.533358 117.009281 
L 249.580335 117.009281 
L 249.67429 120.99517 
L 249.815222 117.009281 
L 250.331972 117.009281 
L 250.472904 120.99517 
L 250.613836 117.009281 
L 250.801745 117.009281 
L 250.848723 120.99517 
L 250.8957 117.009281 
L 251.224541 117.009281 
L 251.318496 120.99517 
L 251.459428 117.009281 
L 251.600359 120.99517 
L 251.647337 120.99517 
L 251.788269 117.009281 
L 251.835246 117.009281 
L 251.976178 120.99517 
L 252.11711 117.009281 
L 255.081378 117.009281 
L 255.128355 113.023392 
L 255.175333 117.009281 
L 255.22231 117.009281 
L 255.363242 113.023392 
L 256.020924 113.023392 
L 256.161856 109.037503 
L 256.349765 109.037503 
L 256.396743 113.023392 
L 256.44372 109.037503 
L 257.759085 109.037503 
L 257.900017 105.051615 
L 258.980495 105.051615 
L 259.121427 101.065726 
L 261.987043 101.065726 
L 262.03402 97.079837 
L 262.080997 101.065726 
L 263.302407 101.065726 
L 263.443339 97.079837 
L 263.678226 97.079837 
L 263.819158 101.065726 
L 263.866135 101.065726 
L 264.007067 97.079837 
L 264.147999 101.065726 
L 264.288931 101.065726 
L 264.429863 97.079837 
L 264.758704 97.079837 
L 264.899636 101.065726 
L 265.040568 97.079837 
L 265.228477 97.079837 
L 265.369409 101.065726 
L 265.510341 97.079837 
L 267.154547 97.079837 
L 267.201524 93.093948 
L 267.248501 97.079837 
L 267.765252 97.079837 
L 267.906183 101.065726 
L 267.953161 101.065726 
L 268.094093 97.079837 
L 268.282002 97.079837 
L 268.375957 101.065726 
L 268.516888 97.079837 
L 268.563866 101.065726 
L 268.610843 97.079837 
L 268.704798 97.079837 
L 268.84573 101.065726 
L 268.986662 97.079837 
L 269.033639 97.079837 
L 269.080616 101.065726 
L 269.127593 97.079837 
L 269.174571 97.079837 
L 269.315503 101.065726 
L 269.456435 97.079837 
L 269.597367 101.065726 
L 269.785276 101.065726 
L 269.832253 97.079837 
L 269.87923 101.065726 
L 269.973185 101.065726 
L 270.020162 97.079837 
L 270.06714 101.065726 
L 270.58389 101.065726 
L 270.630867 97.079837 
L 270.677845 101.065726 
L 271.10064 101.065726 
L 271.194595 97.079837 
L 271.335527 101.065726 
L 271.758323 101.065726 
L 271.852277 97.079837 
L 271.993209 101.065726 
L 272.275073 101.065726 
L 272.416005 97.079837 
L 272.697869 97.079837 
L 272.744846 101.065726 
L 272.791824 97.079837 
L 272.932756 97.079837 
L 272.979733 101.065726 
L 273.02671 97.079837 
L 273.120665 97.079837 
L 273.261597 101.065726 
L 273.308574 101.065726 
L 273.449506 97.079837 
L 273.684392 97.079837 
L 273.825324 101.065726 
L 274.436029 101.065726 
L 274.576961 105.051615 
L 275.281621 105.051615 
L 275.422553 109.037503 
L 277.865373 109.037503 
L 278.006305 105.051615 
L 278.10026 105.051615 
L 278.194214 109.037503 
L 278.335146 105.051615 
L 278.476078 109.037503 
L 278.61701 105.051615 
L 278.992828 105.051615 
L 279.13376 101.065726 
L 279.556556 101.065726 
L 279.697488 97.079837 
L 280.261216 97.079837 
L 280.402148 93.093948 
L 281.012853 93.093948 
L 281.153785 89.10806 
L 281.294717 93.093948 
L 282.046353 93.093948 
L 282.187285 89.10806 
L 282.422172 89.10806 
L 282.563104 85.122171 
L 282.657058 85.122171 
L 282.751013 89.10806 
L 282.79799 85.122171 
L 282.844968 89.10806 
L 282.891945 89.10806 
L 283.032877 85.122171 
L 283.126832 85.122171 
L 283.220786 89.10806 
L 283.361718 85.122171 
L 283.50265 89.10806 
L 283.596605 85.122171 
L 283.737537 89.10806 
L 283.784514 85.122171 
L 283.831491 89.10806 
L 284.113355 89.10806 
L 284.20731 85.122171 
L 284.348242 89.10806 
L 284.395219 89.10806 
L 284.442196 85.122171 
L 284.489174 89.10806 
L 284.630105 89.10806 
L 284.771037 85.122171 
L 284.911969 89.10806 
L 284.958947 89.10806 
L 285.052901 85.122171 
L 285.193833 89.10806 
L 285.334765 85.122171 
L 285.851516 85.122171 
L 286.039425 89.10806 
L 286.274311 89.10806 
L 286.368266 85.122171 
L 286.462221 89.10806 
L 286.603152 85.122171 
L 286.65013 85.122171 
L 286.791062 89.10806 
L 286.885016 89.10806 
L 287.025948 85.122171 
L 287.072926 89.10806 
L 287.119903 85.122171 
L 287.401767 85.122171 
L 287.448744 89.10806 
L 287.495721 85.122171 
L 289.421791 85.122171 
L 289.468768 81.136282 
L 289.515746 85.122171 
L 289.938541 85.122171 
L 289.985519 81.136282 
L 290.032496 85.122171 
L 291.911588 85.122171 
L 291.958566 81.136282 
L 292.005543 85.122171 
L 292.945089 85.122171 
L 292.992066 81.136282 
L 293.039044 85.122171 
L 293.086021 85.122171 
L 293.226953 81.136282 
L 293.367885 81.136282 
L 293.508817 85.122171 
L 293.649749 85.122171 
L 293.696726 81.136282 
L 293.743703 85.122171 
L 294.119522 85.122171 
L 294.260454 89.10806 
L 294.401386 89.10806 
L 294.542318 85.122171 
L 294.636272 85.122171 
L 294.68325 89.10806 
L 294.730227 85.122171 
L 294.965113 85.122171 
L 295.106045 89.10806 
L 296.045592 89.10806 
L 296.139546 93.093948 
L 296.280478 89.10806 
L 296.327455 89.10806 
L 296.468387 93.093948 
L 296.703274 93.093948 
L 296.750251 89.10806 
L 296.797229 93.093948 
L 296.985138 93.093948 
L 297.12607 97.079837 
L 297.267002 97.079837 
L 297.407934 93.093948 
L 297.830729 93.093948 
L 297.971661 89.10806 
L 298.676321 89.10806 
L 298.723298 85.122171 
L 298.770275 89.10806 
L 298.86423 89.10806 
L 299.005162 85.122171 
L 299.521912 85.122171 
L 299.56889 89.10806 
L 299.615867 85.122171 
L 300.08564 85.122171 
L 300.226572 89.10806 
L 300.414481 89.10806 
L 300.555413 85.122171 
L 300.743322 85.122171 
L 300.837277 89.10806 
L 300.978209 85.122171 
L 302.105664 85.122171 
L 302.152642 89.10806 
L 302.199619 85.122171 
L 302.810324 85.122171 
L 302.951256 89.10806 
L 303.843825 89.10806 
L 303.984757 93.093948 
L 304.172666 93.093948 
L 304.219643 89.10806 
L 304.266621 93.093948 
L 305.112212 93.093948 
L 305.15919 97.079837 
L 305.206167 93.093948 
L 305.67594 93.093948 
L 305.722917 97.079837 
L 305.769895 93.093948 
L 305.910826 93.093948 
L 306.051758 97.079837 
L 306.098736 93.093948 
L 306.145713 97.079837 
L 306.19269 97.079837 
L 306.333622 93.093948 
L 306.3806 93.093948 
L 306.521531 97.079837 
L 307.60201 97.079837 
L 307.742942 101.065726 
L 307.836896 101.065726 
L 307.883873 97.079837 
L 307.930851 101.065726 
L 308.165737 101.065726 
L 308.212715 105.051615 
L 308.259692 101.065726 
L 308.776442 101.065726 
L 308.917374 105.051615 
L 309.011329 105.051615 
L 309.058306 101.065726 
L 309.105283 105.051615 
L 309.199238 105.051615 
L 309.293193 101.065726 
L 309.434125 105.051615 
L 309.481102 105.051615 
L 309.622034 101.065726 
L 309.85692 101.065726 
L 309.903898 105.051615 
L 309.950875 101.065726 
L 310.04483 101.065726 
L 310.185762 105.051615 
L 310.279716 105.051615 
L 310.420648 101.065726 
L 310.56158 105.051615 
L 310.890421 105.051615 
L 310.984376 101.065726 
L 311.07833 105.051615 
L 311.219262 101.065726 
L 311.313217 101.065726 
L 311.454149 105.051615 
L 311.595081 101.065726 
L 312.111831 101.065726 
L 312.205786 105.051615 
L 312.346718 101.065726 
L 312.628582 101.065726 
L 312.675559 105.051615 
L 312.722536 101.065726 
L 313.0044 101.065726 
L 313.051377 105.051615 
L 313.098355 101.065726 
L 314.084878 101.065726 
L 314.22581 105.051615 
L 314.319765 101.065726 
L 314.366742 105.051615 
L 314.413719 101.065726 
L 314.507674 101.065726 
L 314.648606 105.051615 
L 315.170054 105.051615 
L 315.310986 109.037503 
L 315.451918 105.051615 
L 315.59285 105.051615 
L 315.733782 109.037503 
L 316.203555 109.037503 
L 316.250532 105.051615 
L 316.297509 109.037503 
L 316.720305 109.037503 
L 316.767283 105.051615 
L 316.81426 109.037503 
L 317.565897 109.037503 
L 317.612874 105.051615 
L 317.659851 109.037503 
L 317.800783 109.037503 
L 317.847761 105.051615 
L 317.894738 109.037503 
L 317.941715 109.037503 
L 317.988693 105.051615 
L 318.03567 109.037503 
L 318.082647 109.037503 
L 318.223579 105.051615 
L 318.317534 105.051615 
L 318.458466 109.037503 
L 318.599398 105.051615 
L 318.74033 109.037503 
L 318.834284 105.051615 
L 318.975216 109.037503 
L 319.398012 109.037503 
L 319.444989 105.051615 
L 319.491967 109.037503 
L 319.632898 109.037503 
L 319.679876 105.051615 
L 319.726853 109.037503 
L 320.196626 109.037503 
L 320.337558 105.051615 
L 320.384535 109.037503 
L 320.431513 105.051615 
L 320.47849 105.051615 
L 320.619422 109.037503 
L 320.901286 109.037503 
L 320.948263 105.051615 
L 320.99524 109.037503 
L 321.746877 109.037503 
L 321.887809 105.051615 
L 321.981764 105.051615 
L 322.122696 109.037503 
L 322.169673 109.037503 
L 322.21665 105.051615 
L 322.263628 109.037503 
L 323.109219 109.037503 
L 323.156197 113.023392 
L 323.203174 109.037503 
L 323.532015 109.037503 
L 323.578992 113.023392 
L 323.62597 109.037503 
L 323.907834 109.037503 
L 323.954811 113.023392 
L 324.001788 109.037503 
L 324.048765 109.037503 
L 324.189697 113.023392 
L 324.236675 113.023392 
L 324.377607 117.009281 
L 324.518539 113.023392 
L 325.035289 113.023392 
L 325.082266 109.037503 
L 325.129244 113.023392 
L 326.115767 113.023392 
L 326.256699 109.037503 
L 326.350654 113.023392 
L 326.491586 109.037503 
L 326.538563 109.037503 
L 326.58554 113.023392 
L 326.632517 109.037503 
L 326.679495 109.037503 
L 326.820427 113.023392 
L 327.149268 113.023392 
L 327.243222 124.981058 
L 327.337177 120.99517 
L 327.431132 120.99517 
L 327.619041 113.023392 
L 328.370678 113.023392 
L 328.51161 117.009281 
L 328.605564 117.009281 
L 328.699519 113.023392 
L 328.746496 117.009281 
L 328.793474 113.023392 
L 328.981383 113.023392 
L 329.169292 120.99517 
L 329.216269 120.99517 
L 329.357201 117.009281 
L 330.014884 117.009281 
L 330.061861 113.023392 
L 330.108838 117.009281 
L 330.672566 117.009281 
L 330.719543 113.023392 
L 330.766521 117.009281 
L 333.256318 117.009281 
L 333.303295 120.99517 
L 333.350273 117.009281 
L 333.726091 117.009281 
L 333.773068 113.023392 
L 333.820046 117.009281 
L 335.652161 117.009281 
L 335.699138 113.023392 
L 335.746115 117.009281 
L 337.296367 117.009281 
L 337.437299 120.99517 
L 337.57823 120.99517 
L 337.625208 124.981058 
L 337.672185 120.99517 
L 337.813117 117.009281 
L 337.860094 120.99517 
L 337.907072 117.009281 
L 338.048004 117.009281 
L 338.094981 120.99517 
L 338.141958 117.009281 
L 338.235913 117.009281 
L 338.376845 120.99517 
L 338.940572 120.99517 
L 338.98755 124.981058 
L 339.034527 120.99517 
L 340.20896 120.99517 
L 340.349892 124.981058 
L 342.604803 124.981058 
L 342.65178 128.966947 
L 342.698757 124.981058 
L 343.121553 124.981058 
L 343.16853 128.966947 
L 343.215508 124.981058 
L 344.718781 124.981058 
L 344.859713 128.966947 
L 344.953668 128.966947 
L 345.141577 120.99517 
L 345.470418 120.99517 
L 345.564373 124.981058 
L 345.658328 120.99517 
L 345.79926 124.981058 
L 346.31601 124.981058 
L 346.409965 128.966947 
L 346.550897 124.981058 
L 346.644851 128.966947 
L 346.691828 124.981058 
L 346.738806 128.966947 
L 346.926715 128.966947 
L 347.067647 124.981058 
L 347.349511 124.981058 
L 347.396488 128.966947 
L 347.443465 124.981058 
L 348.523943 124.981058 
L 348.711853 132.952836 
L 349.087671 132.952836 
L 349.181626 128.966947 
L 349.322558 132.952836 
L 349.46349 128.966947 
L 349.510467 128.966947 
L 349.651399 124.981058 
L 349.698376 124.981058 
L 349.839308 128.966947 
L 349.886285 128.966947 
L 349.98024 136.938725 
L 350.074195 128.966947 
L 350.215127 136.938725 
L 350.356059 128.966947 
L 350.590945 144.910502 
L 350.919786 124.981058 
L 351.107695 132.952836 
L 351.154673 132.952836 
L 351.20165 136.938725 
L 351.248627 132.952836 
L 351.436537 132.952836 
L 351.483514 140.924613 
L 351.530491 136.938725 
L 351.624446 132.952836 
L 351.765378 140.924613 
L 351.859332 140.924613 
L 352.000264 136.938725 
L 352.047242 136.938725 
L 352.188174 132.952836 
L 352.704924 132.952836 
L 352.892833 140.924613 
L 352.986788 140.924613 
L 353.174697 132.952836 
L 353.315629 136.938725 
L 353.362606 136.938725 
L 353.503538 132.952836 
L 353.64447 136.938725 
L 353.785402 132.952836 
L 353.973311 132.952836 
L 354.114243 136.938725 
L 354.677971 136.938725 
L 354.724948 140.924613 
L 354.771926 136.938725 
L 355.053789 136.938725 
L 355.100767 140.924613 
L 355.147744 136.938725 
L 355.194721 136.938725 
L 355.335653 140.924613 
L 355.382631 140.924613 
L 355.523563 136.938725 
L 355.617517 136.938725 
L 355.664494 132.952836 
L 355.711472 136.938725 
L 355.946358 136.938725 
L 356.040313 140.924613 
L 356.181245 136.938725 
L 356.322177 140.924613 
L 356.416131 140.924613 
L 356.557063 136.938725 
L 356.604041 136.938725 
L 356.697995 140.924613 
L 356.838927 136.938725 
L 357.402655 136.938725 
L 357.543587 140.924613 
L 357.590564 140.924613 
L 357.731496 136.938725 
L 357.778473 136.938725 
L 357.919405 140.924613 
L 358.060337 136.938725 
L 358.436156 136.938725 
L 358.53011 140.924613 
L 358.624065 136.938725 
L 358.811974 148.896391 
L 358.999883 140.924613 
L 359.093838 144.910502 
L 359.281747 136.938725 
L 359.516634 136.938725 
L 359.657566 140.924613 
L 359.845475 140.924613 
L 359.892452 144.910502 
L 359.93943 140.924613 
L 360.221293 140.924613 
L 360.315248 144.910502 
L 360.45618 140.924613 
L 360.97293 140.924613 
L 361.019908 136.938725 
L 361.066885 140.924613 
L 361.207817 140.924613 
L 361.348749 144.910502 
L 361.536658 144.910502 
L 361.67759 140.924613 
L 362.053408 140.924613 
L 362.19434 148.896391 
L 362.335272 144.910502 
L 362.38225 144.910502 
L 362.570159 136.938725 
L 362.617136 136.938725 
L 362.758068 140.924613 
L 362.852023 140.924613 
L 362.992955 144.910502 
L 363.180864 144.910502 
L 363.227841 148.896391 
L 363.321796 140.924613 
L 363.462728 144.910502 
L 363.509705 144.910502 
L 363.650637 140.924613 
L 363.791569 144.910502 
L 363.979478 144.910502 
L 364.12041 148.896391 
L 364.167387 148.896391 
L 364.355297 156.868168 
L 364.590183 156.868168 
L 364.82507 168.825834 
L 365.012979 168.825834 
L 365.153911 172.811723 
L 365.294843 172.811723 
L 365.435775 180.783501 
L 365.482752 176.797612 
L 365.529729 180.783501 
L 365.576707 180.783501 
L 365.670661 176.797612 
L 365.811593 180.783501 
L 365.858571 180.783501 
L 365.999502 184.769389 
L 366.093457 180.783501 
L 366.234389 184.769389 
L 366.704162 184.769389 
L 366.845094 188.755278 
L 366.939049 188.755278 
L 367.079981 192.741167 
L 367.126958 192.741167 
L 367.26789 196.727056 
L 367.455799 196.727056 
L 367.596731 200.712944 
L 367.925572 200.712944 
L 368.066504 204.698833 
L 368.348368 204.698833 
L 368.536277 212.670611 
L 368.677209 212.670611 
L 368.818141 216.656499 
L 369.146982 216.656499 
L 369.287914 220.642388 
L 369.334891 220.642388 
L 369.475823 224.628277 
L 369.522801 224.628277 
L 369.71071 232.600054 
L 369.945596 232.600054 
L 370.133506 240.571832 
L 370.509324 240.571832 
L 370.556301 244.55772 
L 370.603279 240.571832 
L 370.650256 240.571832 
L 370.791188 244.55772 
L 370.93212 244.55772 
L 371.120029 252.529498 
L 371.213984 252.529498 
L 371.354916 256.515387 
L 371.542825 256.515387 
L 371.683757 260.501275 
L 372.294462 260.501275 
L 372.435394 264.487164 
L 372.623303 264.487164 
L 372.764235 268.473053 
L 372.905167 268.473053 
L 373.093076 276.44483 
L 373.140053 272.458942 
L 373.187031 276.44483 
L 373.327963 276.44483 
L 373.468895 280.430719 
L 373.656804 280.430719 
L 373.844713 288.402497 
L 374.0796 288.402497 
L 374.220532 292.388385 
L 374.314486 292.388385 
L 374.455418 288.402497 
L 374.59635 292.388385 
L 374.737282 292.388385 
L 374.831237 296.374274 
L 374.972168 292.388385 
L 375.1131 296.374274 
L 375.207055 296.374274 
L 375.347987 300.360163 
L 375.394964 300.360163 
L 375.535896 296.374274 
L 375.723805 296.374274 
L 375.869435 300.360163 
L 376.151299 300.360163 
L 376.292231 296.374274 
L 376.99689 296.374274 
L 377.137822 300.360163 
L 377.70155 300.360163 
L 377.748527 296.374274 
L 377.795505 300.360163 
L 377.842482 300.360163 
L 377.889459 304.346052 
L 377.936437 300.360163 
L 378.030391 300.360163 
L 378.077369 304.346052 
L 378.124346 300.360163 
L 378.265278 300.360163 
L 378.359232 304.346052 
L 378.453187 300.360163 
L 378.594119 304.346052 
L 378.735051 300.360163 
L 378.969937 300.360163 
L 379.157847 308.33194 
L 379.251801 308.33194 
L 379.298779 304.346052 
L 379.345756 308.33194 
L 379.392733 308.33194 
L 379.533665 304.346052 
L 379.62762 308.33194 
L 379.674597 304.346052 
L 379.721574 308.33194 
L 379.768552 308.33194 
L 379.909484 304.346052 
L 380.050416 304.346052 
L 380.191348 308.33194 
L 380.473211 308.33194 
L 380.520189 304.346052 
L 380.567166 308.33194 
L 380.755075 308.33194 
L 380.802053 304.346052 
L 380.84903 308.33194 
L 380.942984 308.33194 
L 381.083916 304.346052 
L 381.318803 304.346052 
L 381.459735 308.33194 
L 381.553689 304.346052 
L 381.694621 308.33194 
L 382.117417 308.33194 
L 382.258349 304.346052 
L 382.399281 308.33194 
L 382.681145 308.33194 
L 382.7751 312.317829 
L 382.822077 308.33194 
L 382.869054 312.317829 
L 383.056963 312.317829 
L 383.197895 308.33194 
L 383.244873 308.33194 
L 383.385805 312.317829 
L 383.620691 312.317829 
L 383.761623 308.33194 
L 383.855578 308.33194 
L 383.949532 316.303718 
L 383.99651 312.317829 
L 384.231396 312.317829 
L 384.278373 308.33194 
L 384.325351 312.317829 
L 384.560237 312.317829 
L 384.654192 316.303718 
L 384.795124 312.317829 
L 384.842101 312.317829 
L 385.03001 320.289607 
L 385.21792 312.317829 
L 385.405829 312.317829 
L 385.452806 308.33194 
L 385.499783 312.317829 
L 385.73467 312.317829 
L 385.875602 316.303718 
L 386.016534 312.317829 
L 386.25142 312.317829 
L 386.298398 308.33194 
L 386.345375 312.317829 
L 386.392352 312.317829 
L 386.43933 316.303718 
L 386.486307 312.317829 
L 386.674216 312.317829 
L 386.815148 308.33194 
L 386.862125 308.33194 
L 387.003057 312.317829 
L 387.097012 308.33194 
L 387.284921 316.303718 
L 387.425853 316.303718 
L 387.519808 312.317829 
L 387.66074 328.261384 
L 387.754694 324.275495 
L 387.942603 316.303718 
L 388.130513 316.303718 
L 388.224467 312.317829 
L 388.271445 316.303718 
L 388.318422 312.317829 
L 388.600286 312.317829 
L 388.647263 316.303718 
L 388.69424 312.317829 
L 388.741218 312.317829 
L 388.835172 316.303718 
L 388.976104 312.317829 
L 389.070059 312.317829 
L 389.117036 316.303718 
L 389.164014 312.317829 
L 389.304945 308.33194 
L 389.445877 312.317829 
L 389.821696 312.317829 
L 390.009605 320.289607 
L 390.291469 320.289607 
L 390.432401 316.303718 
L 390.62031 316.303718 
L 390.761242 320.289607 
L 391.231015 320.289607 
L 391.371947 316.303718 
L 392.922198 316.303718 
L 393.06313 312.317829 
L 393.110107 312.317829 
L 393.251039 316.303718 
L 393.485926 316.303718 
L 393.626858 312.317829 
L 394.002676 312.317829 
L 394.143608 316.303718 
L 394.331518 308.33194 
L 394.519427 316.303718 
L 394.660359 312.317829 
L 394.848268 312.317829 
L 394.9892 308.33194 
L 395.130132 312.317829 
L 395.411996 312.317829 
L 395.552928 308.33194 
L 395.646882 308.33194 
L 395.740837 312.317829 
L 395.881769 308.33194 
L 396.069678 308.33194 
L 396.116655 304.346052 
L 396.163633 308.33194 
L 396.304565 308.33194 
L 396.351542 304.346052 
L 396.398519 308.33194 
L 396.492474 308.33194 
L 396.633406 304.346052 
L 396.821315 312.317829 
L 397.009224 304.346052 
L 397.150156 308.33194 
L 397.244111 308.33194 
L 397.291088 312.317829 
L 397.338065 308.33194 
L 397.43202 308.33194 
L 397.572952 300.360163 
L 397.713884 304.346052 
L 397.901793 304.346052 
L 398.042725 300.360163 
L 398.183657 304.346052 
L 398.559475 304.346052 
L 398.747385 312.317829 
L 398.794362 312.317829 
L 398.935294 308.33194 
L 399.076226 312.317829 
L 399.264135 312.317829 
L 399.311112 316.303718 
L 399.35809 312.317829 
L 399.405067 312.317829 
L 399.545999 320.289607 
L 399.686931 316.303718 
L 399.968795 316.303718 
L 400.062749 312.317829 
L 400.250658 320.289607 
L 400.39159 316.303718 
L 400.626477 316.303718 
L 400.673454 320.289607 
L 400.720432 316.303718 
L 400.767409 316.303718 
L 400.908341 312.317829 
L 400.955318 312.317829 
L 401.09625 316.303718 
L 401.472068 316.303718 
L 401.613 320.289607 
L 401.753932 320.289607 
L 401.894864 324.275495 
L 402.458592 324.275495 
L 402.599524 328.261384 
L 402.646501 324.275495 
L 402.693479 328.261384 
L 402.787433 328.261384 
L 402.881388 324.275495 
L 403.02232 328.261384 
L 403.163252 328.261384 
L 403.210229 332.247273 
L 403.257206 328.261384 
L 403.53907 328.261384 
L 403.633025 324.275495 
L 403.773957 328.261384 
L 403.820934 328.261384 
L 403.914889 324.275495 
L 404.008843 328.261384 
L 404.149775 324.275495 
L 405.042344 324.275495 
L 405.183276 320.289607 
L 405.277231 324.275495 
L 405.418162 320.289607 
L 405.512117 320.289607 
L 405.559094 324.275495 
L 405.606072 320.289607 
L 405.747004 320.289607 
L 405.887936 316.303718 
L 406.028867 316.303718 
L 406.169799 312.317829 
L 406.357709 312.317829 
L 406.498641 316.303718 
L 406.639572 316.303718 
L 406.68655 312.317829 
L 406.733527 316.303718 
L 406.827482 328.261384 
L 407.015391 312.317829 
L 407.062368 312.317829 
L 407.109346 316.303718 
L 407.156323 312.317829 
L 407.297255 308.33194 
L 407.391209 308.33194 
L 407.532141 312.317829 
L 407.814005 312.317829 
L 407.90796 316.303718 
L 408.048892 312.317829 
L 408.283778 312.317829 
L 408.42471 308.33194 
L 408.518665 308.33194 
L 408.659597 304.346052 
L 408.706574 304.346052 
L 408.847506 308.33194 
L 408.988438 304.346052 
L 409.12937 304.346052 
L 409.223324 300.360163 
L 409.364256 304.346052 
L 409.411234 304.346052 
L 409.552166 300.360163 
L 409.693098 300.360163 
L 409.787052 296.374274 
L 409.927984 300.360163 
L 410.068916 296.374274 
L 410.209848 300.360163 
L 410.256825 300.360163 
L 410.35078 296.374274 
L 410.491712 300.360163 
L 410.632644 300.360163 
L 410.773576 292.388385 
L 410.914508 296.374274 
L 410.961485 296.374274 
L 411.05544 292.388385 
L 411.102417 296.374274 
L 411.149394 292.388385 
L 411.243349 292.388385 
L 411.337303 288.402497 
L 411.478235 292.388385 
L 411.525213 292.388385 
L 411.666145 288.402497 
L 411.901031 288.402497 
L 411.994986 284.416608 
L 412.135918 288.402497 
L 412.182895 288.402497 
L 412.323827 284.416608 
L 412.511736 284.416608 
L 412.558713 288.402497 
L 412.605691 284.416608 
L 412.7936 284.416608 
L 412.934532 288.402497 
L 413.075464 288.402497 
L 413.216396 284.416608 
L 413.451282 284.416608 
L 413.592214 280.430719 
L 414.249897 280.430719 
L 414.343851 284.416608 
L 414.484783 280.430719 
L 414.766647 280.430719 
L 414.860602 276.44483 
L 415.001533 280.430719 
L 415.189443 272.458942 
L 415.659216 272.458942 
L 415.706193 276.44483 
L 415.75317 272.458942 
L 415.94108 272.458942 
L 415.988057 276.44483 
L 416.035034 272.458942 
L 416.222944 272.458942 
L 416.269921 268.473053 
L 416.316898 272.458942 
L 416.833649 272.458942 
L 416.97458 268.473053 
L 417.397376 268.473053 
L 417.444354 272.458942 
L 417.491331 268.473053 
L 417.538308 268.473053 
L 417.632263 276.44483 
L 417.67924 272.458942 
L 417.726217 272.458942 
L 417.773195 268.473053 
L 417.820172 272.458942 
L 418.055059 272.458942 
L 418.102036 268.473053 
L 418.149013 272.458942 
L 418.242968 272.458942 
L 418.289945 268.473053 
L 418.336922 272.458942 
L 418.3839 272.458942 
L 418.524832 276.44483 
L 418.759718 276.44483 
L 418.947627 268.473053 
L 419.229491 268.473053 
L 419.370423 272.458942 
L 419.417401 272.458942 
L 419.558332 296.374274 
L 419.60531 292.388385 
L 419.746242 268.473053 
L 419.793219 272.458942 
L 419.981128 272.458942 
L 420.12206 276.44483 
L 420.309969 268.473053 
L 420.450901 268.473053 
L 420.591833 272.458942 
L 420.920674 272.458942 
L 421.014629 276.44483 
L 421.061606 272.458942 
L 421.108584 276.44483 
L 421.202538 276.44483 
L 421.34347 272.458942 
L 421.766266 272.458942 
L 421.907198 276.44483 
L 422.04813 276.44483 
L 422.095107 284.416608 
L 422.142084 280.430719 
L 422.283016 276.44483 
L 423.081631 276.44483 
L 423.222563 272.458942 
L 423.26954 272.458942 
L 423.504426 284.416608 
L 423.739313 272.458942 
L 423.833268 272.458942 
L 423.927222 276.44483 
L 424.068154 272.458942 
L 424.162109 272.458942 
L 424.303041 276.44483 
L 424.396995 272.458942 
L 424.537927 276.44483 
L 424.631882 276.44483 
L 424.772814 288.402497 
L 424.913746 280.430719 
L 425.054678 276.44483 
L 425.101655 276.44483 
L 425.148632 280.430719 
L 425.19561 276.44483 
L 425.524451 276.44483 
L 425.665383 272.458942 
L 426.041201 272.458942 
L 426.182133 276.44483 
L 426.323065 276.44483 
L 426.463997 280.430719 
L 426.510974 276.44483 
L 426.557952 280.430719 
L 426.651906 280.430719 
L 426.745861 284.416608 
L 426.886793 276.44483 
L 427.074702 276.44483 
L 427.121679 280.430719 
L 427.168657 276.44483 
L 427.309588 276.44483 
L 427.45052 280.430719 
L 427.591452 276.44483 
L 427.732384 280.430719 
L 427.826339 280.430719 
L 427.967271 284.416608 
L 428.108203 284.416608 
L 428.202157 296.374274 
L 428.343089 284.416608 
L 428.718908 284.416608 
L 428.85984 280.430719 
L 428.906817 280.430719 
L 429.047749 284.416608 
L 429.282635 284.416608 
L 429.423567 288.402497 
L 429.611477 280.430719 
L 429.799386 280.430719 
L 429.940318 284.416608 
L 430.175204 284.416608 
L 430.269159 280.430719 
L 430.410091 292.388385 
L 430.457068 288.402497 
L 430.644977 288.402497 
L 430.738932 296.374274 
L 430.785909 292.388385 
L 430.879864 292.388385 
L 431.020796 288.402497 
L 431.067773 288.402497 
L 431.208705 284.416608 
L 431.349637 284.416608 
L 431.490569 288.402497 
L 431.631501 288.402497 
L 431.772433 284.416608 
L 431.81941 284.416608 
L 431.960342 292.388385 
L 432.148251 284.416608 
L 432.289183 284.416608 
L 432.477092 296.374274 
L 432.571047 288.402497 
L 432.618024 292.388385 
L 432.665002 288.402497 
L 432.805934 284.416608 
L 432.899888 284.416608 
L 433.04082 280.430719 
L 433.087797 280.430719 
L 433.228729 284.416608 
L 433.275707 280.430719 
L 433.322684 284.416608 
L 433.792457 284.416608 
L 433.933389 280.430719 
L 434.356185 280.430719 
L 434.497117 284.416608 
L 434.638049 280.430719 
L 434.778981 284.416608 
L 434.825958 284.416608 
L 434.96689 280.430719 
L 435.060844 280.430719 
L 435.107822 284.416608 
L 435.154799 280.430719 
L 435.201776 280.430719 
L 435.295731 276.44483 
L 435.436663 280.430719 
L 435.48364 280.430719 
L 435.577595 276.44483 
L 435.718527 280.430719 
L 435.906436 272.458942 
L 436.141323 272.458942 
L 436.329232 280.430719 
L 436.470164 280.430719 
L 436.658073 272.458942 
L 436.70505 272.458942 
L 436.799005 276.44483 
L 436.939937 272.458942 
L 436.986914 272.458942 
L 437.127846 276.44483 
L 437.273476 272.458942 
L 437.36743 276.44483 
L 437.508362 272.458942 
L 437.602317 272.458942 
L 437.743249 268.473053 
L 437.884181 272.458942 
L 437.931158 272.458942 
L 437.978135 268.473053 
L 438.025113 272.458942 
L 438.259999 272.458942 
L 438.400931 268.473053 
L 438.447908 268.473053 
L 438.58884 276.44483 
L 438.77675 268.473053 
L 438.870704 268.473053 
L 439.011636 276.44483 
L 439.058613 272.458942 
L 439.105591 276.44483 
L 439.152568 276.44483 
L 439.2935 268.473053 
L 439.340477 268.473053 
L 439.481409 264.487164 
L 439.528387 264.487164 
L 439.575364 260.501275 
L 439.622341 264.487164 
L 439.716296 264.487164 
L 439.763273 268.473053 
L 439.81025 264.487164 
L 439.857228 264.487164 
L 439.99816 260.501275 
L 440.233046 260.501275 
L 440.373978 264.487164 
L 440.561887 264.487164 
L 440.702819 260.501275 
L 440.984683 260.501275 
L 441.172592 268.473053 
L 441.21957 268.473053 
L 441.360502 264.487164 
L 442.25307 264.487164 
L 442.394002 260.501275 
L 442.487957 260.501275 
L 442.581912 264.487164 
L 442.628889 260.501275 
L 442.675866 264.487164 
L 442.816798 268.473053 
L 442.95773 268.473053 
L 443.004707 264.487164 
L 443.051685 268.473053 
L 443.098662 268.473053 
L 443.239594 264.487164 
L 443.286571 264.487164 
L 443.427503 260.501275 
L 444.226117 260.501275 
L 444.273095 264.487164 
L 444.320072 260.501275 
L 444.507981 260.501275 
L 444.648913 264.487164 
L 444.789845 264.487164 
L 444.930777 260.501275 
L 445.071709 260.501275 
L 445.212641 264.487164 
L 445.353573 260.501275 
L 445.541482 260.501275 
L 445.682414 256.515387 
L 445.917301 256.515387 
L 445.964278 260.501275 
L 446.011255 256.515387 
L 446.387074 256.515387 
L 446.528006 260.501275 
L 446.574983 260.501275 
L 446.62196 256.515387 
L 446.668938 260.501275 
L 447.32662 260.501275 
L 447.420574 268.473053 
L 447.467552 264.487164 
L 447.655461 256.515387 
L 447.702438 256.515387 
L 447.84337 260.501275 
L 448.031279 260.501275 
L 448.172211 256.515387 
L 448.219189 256.515387 
L 448.360121 260.501275 
L 448.641984 260.501275 
L 448.735939 252.529498 
L 448.782916 256.515387 
L 448.876871 260.501275 
L 448.923848 256.515387 
L 449.017803 268.473053 
L 449.205712 252.529498 
L 449.25269 252.529498 
L 449.346644 264.487164 
L 449.440599 260.501275 
L 449.581531 256.515387 
L 449.675485 256.515387 
L 449.76944 260.501275 
L 449.910372 256.515387 
L 450.145258 256.515387 
L 450.28619 252.529498 
L 450.427122 256.515387 
L 450.662009 256.515387 
L 450.708986 260.501275 
L 450.755963 256.515387 
L 450.849918 256.515387 
L 450.896895 252.529498 
L 450.943873 256.515387 
L 451.131782 256.515387 
L 451.178759 260.501275 
L 451.319691 252.529498 
L 451.601555 252.529498 
L 451.742487 256.515387 
L 451.836442 256.515387 
L 451.977373 264.487164 
L 452.165283 256.515387 
L 452.21226 256.515387 
L 452.353192 252.529498 
L 452.822965 252.529498 
L 452.91692 248.543609 
L 453.104829 256.515387 
L 453.245761 256.515387 
L 453.339715 260.501275 
L 453.574602 248.543609 
L 453.715534 248.543609 
L 453.809488 252.529498 
L 453.95042 248.543609 
L 454.044375 248.543609 
L 454.091352 252.529498 
L 454.13833 248.543609 
L 454.420194 248.543609 
L 454.514148 256.515387 
L 454.561125 252.529498 
L 454.65508 252.529498 
L 454.796012 248.543609 
L 454.842989 248.543609 
L 454.983921 252.529498 
L 455.17183 252.529498 
L 455.312762 248.543609 
L 455.594626 248.543609 
L 455.735558 252.529498 
L 456.205331 252.529498 
L 456.346263 248.543609 
L 457.567673 248.543609 
L 457.661628 260.501275 
L 457.708605 256.515387 
L 457.943492 244.55772 
L 458.460242 244.55772 
L 458.601174 248.543609 
L 458.789083 248.543609 
L 458.930015 244.55772 
L 459.399788 244.55772 
L 459.54072 240.571832 
L 459.587698 244.55772 
L 459.634675 240.571832 
L 459.728629 240.571832 
L 459.869561 236.585943 
L 460.198403 236.585943 
L 460.386312 228.614166 
L 460.433289 228.614166 
L 460.480266 224.628277 
L 460.527244 228.614166 
L 460.668176 228.614166 
L 460.809108 224.628277 
L 460.950039 224.628277 
L 461.090971 228.614166 
L 461.560744 228.614166 
L 461.701676 232.600054 
L 461.748654 232.600054 
L 461.842608 228.614166 
L 461.936563 232.600054 
L 461.98354 228.614166 
L 462.030518 232.600054 
L 462.124472 232.600054 
L 462.265404 228.614166 
L 462.406336 232.600054 
L 462.547268 228.614166 
L 462.6882 232.600054 
L 462.782155 232.600054 
L 462.923086 228.614166 
L 463.110996 228.614166 
L 463.20495 224.628277 
L 463.345882 232.600054 
L 463.486814 228.614166 
L 463.956587 228.614166 
L 464.097519 232.600054 
L 464.42636 232.600054 
L 464.567292 228.614166 
L 464.849156 228.614166 
L 464.990088 224.628277 
L 465.037065 224.628277 
L 465.084043 228.614166 
L 465.13102 224.628277 
L 465.694748 224.628277 
L 465.788702 228.614166 
L 465.929634 224.628277 
L 466.634294 224.628277 
L 466.822203 232.600054 
L 466.916158 232.600054 
L 467.104067 224.628277 
L 467.808727 224.628277 
L 467.902681 220.642388 
L 467.996636 224.628277 
L 468.184545 216.656499 
L 468.231522 216.656499 
L 468.372454 220.642388 
L 468.79525 220.642388 
L 468.936182 216.656499 
L 468.983159 216.656499 
L 469.124091 220.642388 
L 469.312 220.642388 
L 469.405955 216.656499 
L 469.546887 220.642388 
L 469.640842 216.656499 
L 469.781774 220.642388 
L 469.828751 220.642388 
L 469.922705 216.656499 
L 470.063637 220.642388 
L 470.157592 220.642388 
L 470.251547 224.628277 
L 470.439456 216.656499 
L 470.72132 216.656499 
L 470.815274 212.670611 
L 470.956206 216.656499 
L 471.660866 216.656499 
L 471.801798 220.642388 
L 471.94273 216.656499 
L 471.989707 220.642388 
L 472.036684 216.656499 
L 472.083662 216.656499 
L 472.130639 212.670611 
L 472.177616 216.656499 
L 472.224594 216.656499 
L 472.365526 220.642388 
L 472.412503 220.642388 
L 472.553435 228.614166 
L 472.741344 220.642388 
L 472.788321 220.642388 
L 472.835299 216.656499 
L 472.882276 224.628277 
L 472.929253 220.642388 
L 472.976231 220.642388 
L 473.117163 216.656499 
L 473.258094 220.642388 
L 473.399026 216.656499 
L 473.539958 216.656499 
L 473.68089 220.642388 
L 473.727868 220.642388 
L 473.868799 216.656499 
L 474.009731 216.656499 
L 474.150663 220.642388 
L 474.197641 216.656499 
L 474.244618 220.642388 
L 474.291595 220.642388 
L 474.38555 216.656499 
L 474.526482 220.642388 
L 474.667414 220.642388 
L 474.808346 216.656499 
L 474.855323 216.656499 
L 474.996255 212.670611 
L 475.137187 212.670611 
L 475.278119 216.656499 
L 475.419051 216.656499 
L 475.559983 212.670611 
L 475.747892 212.670611 
L 475.888824 216.656499 
L 476.076733 216.656499 
L 476.217665 212.670611 
L 476.499529 212.670611 
L 476.593483 216.656499 
L 476.734415 212.670611 
L 477.157211 212.670611 
L 477.298143 208.684722 
L 477.720939 208.684722 
L 477.861871 212.670611 
L 477.908848 212.670611 
L 478.04978 208.684722 
L 479.412122 208.684722 
L 479.459099 204.698833 
L 479.506077 208.684722 
L 479.600031 208.684722 
L 479.693986 204.698833 
L 479.834918 208.684722 
L 480.398645 208.684722 
L 480.445623 212.670611 
L 480.4926 208.684722 
L 481.150282 208.684722 
L 481.291214 204.698833 
L 481.807965 204.698833 
L 481.901919 208.684722 
L 482.042851 204.698833 
L 482.183783 204.698833 
L 482.277738 208.684722 
L 482.41867 204.698833 
L 483.123329 204.698833 
L 483.170307 200.712944 
L 483.217284 204.698833 
L 483.264261 204.698833 
L 483.311239 200.712944 
L 483.358216 204.698833 
L 483.687057 204.698833 
L 483.734034 200.712944 
L 483.781012 204.698833 
L 483.968921 204.698833 
L 484.109853 200.712944 
L 484.532649 200.712944 
L 484.673581 204.698833 
L 484.814512 200.712944 
L 484.955444 200.712944 
L 485.002422 204.698833 
L 485.049399 200.712944 
L 485.096376 200.712944 
L 485.237308 204.698833 
L 485.284286 204.698833 
L 485.425217 200.712944 
L 485.848013 200.712944 
L 485.988945 208.684722 
L 486.129877 204.698833 
L 486.223832 204.698833 
L 486.270809 200.712944 
L 486.317786 204.698833 
L 486.411741 204.698833 
L 486.552673 200.712944 
L 487.30431 200.712944 
L 487.351287 196.727056 
L 487.398264 200.712944 
L 488.055947 200.712944 
L 488.102924 196.727056 
L 488.149901 200.712944 
L 489.04247 200.712944 
L 489.183402 196.727056 
L 489.418289 196.727056 
L 489.559221 200.712944 
L 489.606198 200.712944 
L 489.74713 196.727056 
L 489.888062 200.712944 
L 489.982016 200.712944 
L 490.122948 196.727056 
L 490.169926 200.712944 
L 490.216903 196.727056 
L 490.592721 196.727056 
L 490.733653 200.712944 
L 490.874585 196.727056 
L 491.015517 196.727056 
L 491.109472 192.741167 
L 491.250404 196.727056 
L 491.6732 196.727056 
L 491.767154 200.712944 
L 491.861109 196.727056 
L 492.002041 200.712944 
L 492.142973 196.727056 
L 492.330882 196.727056 
L 492.471814 192.741167 
L 492.659723 192.741167 
L 492.800655 196.727056 
L 493.035542 196.727056 
L 493.176473 192.741167 
L 493.317405 196.727056 
L 493.364383 192.741167 
L 493.41136 196.727056 
L 493.458337 196.727056 
L 493.599269 192.741167 
L 494.256952 192.741167 
L 494.397883 196.727056 
L 494.491838 196.727056 
L 494.538815 192.741167 
L 494.585793 196.727056 
L 494.726725 200.712944 
L 494.820679 200.712944 
L 494.961611 196.727056 
L 495.008589 196.727056 
L 495.14952 192.741167 
L 495.290452 192.741167 
L 495.384407 188.755278 
L 495.525339 192.741167 
L 495.760225 192.741167 
L 495.901157 188.755278 
L 495.995112 192.741167 
L 496.136044 188.755278 
L 496.276976 192.741167 
L 496.511862 192.741167 
L 496.652794 196.727056 
L 496.793726 192.741167 
L 497.498386 192.741167 
L 497.639318 188.755278 
L 497.686295 192.741167 
L 497.733272 188.755278 
L 497.78025 188.755278 
L 497.827227 192.741167 
L 497.874204 188.755278 
L 498.109091 188.755278 
L 498.109091 188.755278 
" style="fill:none;stroke:#e24a33;stroke-linecap:square;stroke-width:1.5;"/>
   </g>
   <g id="patch_3">
    <path d="M 72 345.6 
L 72 51.84 
" style="fill:none;stroke:#ffffff;stroke-linecap:square;stroke-linejoin:miter;"/>
   </g>
   <g id="patch_4">
    <path d="M 518.4 345.6 
L 518.4 51.84 
" style="fill:none;stroke:#ffffff;stroke-linecap:square;stroke-linejoin:miter;"/>
   </g>
   <g id="patch_5">
    <path d="M 72 345.6 
L 518.4 345.6 
" style="fill:none;stroke:#ffffff;stroke-linecap:square;stroke-linejoin:miter;"/>
   </g>
   <g id="patch_6">
    <path d="M 72 51.84 
L 518.4 51.84 
" style="fill:none;stroke:#ffffff;stroke-linecap:square;stroke-linejoin:miter;"/>
   </g>
   <g id="legend_1">
    <g id="patch_7">
     <path d="M 390.551562 74.518125 
L 511.4 74.518125 
Q 513.4 74.518125 513.4 72.518125 
L 513.4 58.84 
Q 513.4 56.84 511.4 56.84 
L 390.551562 56.84 
Q 388.551562 56.84 388.551562 58.84 
L 388.551562 72.518125 
Q 388.551562 74.518125 390.551562 74.518125 
z
" style="fill:#e5e5e5;opacity:0.8;stroke:#cccccc;stroke-linejoin:miter;stroke-width:0.5;"/>
    </g>
    <g id="line2d_34">
     <path d="M 392.551562 64.938438 
L 412.551562 64.938438 
" style="fill:none;stroke:#e24a33;stroke-linecap:square;stroke-width:1.5;"/>
    </g>
    <g id="line2d_35"/>
    <g id="text_19">
     <!-- Relative Humidity -->
     <g transform="translate(420.551562 68.438438)scale(0.1 -0.1)">
      <defs>
       <path d="M 44.390625 34.1875 
Q 47.5625 33.109375 50.5625 29.59375 
Q 53.5625 26.078125 56.59375 19.921875 
L 66.609375 0 
L 56 0 
L 46.6875 18.703125 
Q 43.0625 26.03125 39.671875 28.421875 
Q 36.28125 30.8125 30.421875 30.8125 
L 19.671875 30.8125 
L 19.671875 0 
L 9.8125 0 
L 9.8125 72.90625 
L 32.078125 72.90625 
Q 44.578125 72.90625 50.734375 67.671875 
Q 56.890625 62.453125 56.890625 51.90625 
Q 56.890625 45.015625 53.6875 40.46875 
Q 50.484375 35.9375 44.390625 34.1875 
z
M 19.671875 64.796875 
L 19.671875 38.921875 
L 32.078125 38.921875 
Q 39.203125 38.921875 42.84375 42.21875 
Q 46.484375 45.515625 46.484375 51.90625 
Q 46.484375 58.296875 42.84375 61.546875 
Q 39.203125 64.796875 32.078125 64.796875 
z
" id="DejaVuSans-82"/>
       <path d="M 9.8125 72.90625 
L 19.671875 72.90625 
L 19.671875 43.015625 
L 55.515625 43.015625 
L 55.515625 72.90625 
L 65.375 72.90625 
L 65.375 0 
L 55.515625 0 
L 55.515625 34.71875 
L 19.671875 34.71875 
L 19.671875 0 
L 9.8125 0 
z
" id="DejaVuSans-72"/>
      </defs>
      <use xlink:href="#DejaVuSans-82"/>
      <use x="64.982422" xlink:href="#DejaVuSans-101"/>
      <use x="126.505859" xlink:href="#DejaVuSans-108"/>
      <use x="154.289062" xlink:href="#DejaVuSans-97"/>
      <use x="215.568359" xlink:href="#DejaVuSans-116"/>
      <use x="254.777344" xlink:href="#DejaVuSans-105"/>
      <use x="282.560547" xlink:href="#DejaVuSans-118"/>
      <use x="341.740234" xlink:href="#DejaVuSans-101"/>
      <use x="403.263672" xlink:href="#DejaVuSans-32"/>
      <use x="435.050781" xlink:href="#DejaVuSans-72"/>
      <use x="510.246094" xlink:href="#DejaVuSans-117"/>
      <use x="573.625" xlink:href="#DejaVuSans-109"/>
      <use x="671.037109" xlink:href="#DejaVuSans-105"/>
      <use x="698.820312" xlink:href="#DejaVuSans-100"/>
      <use x="762.296875" xlink:href="#DejaVuSans-105"/>
      <use x="790.080078" xlink:href="#DejaVuSans-116"/>
      <use x="829.289062" xlink:href="#DejaVuSans-121"/>
     </g>
    </g>
   </g>
  </g>
 </g>
 <defs>
  <clipPath id="p00dc931224">
   <rect height="293.76" width="446.4" x="72" y="51.84"/>
  </clipPath>
 </defs>
</svg>
